<svg width="25" height="25" viewBox="0 0 25 25" fill="none" xmlns="http://www.w3.org/2000/svg">
<path d="M12.733 3.59401L13.941 8.18301C13.989 8.36501 14.17 8.48001 14.356 8.44601C14.415 8.43501 14.471 8.40901 14.518 8.37101L23.816 0.876011C23.888 0.823011 23.988 0.829011 24.053 0.891011C24.118 0.953011 24.129 1.05301 24.079 1.12701L17.017 10.751C16.906 10.9 16.926 11.108 17.063 11.233C17.107 11.273 17.16 11.301 17.217 11.316L21.693 12.493C21.775 12.514 21.831 12.587 21.831 12.671C21.831 12.755 21.775 12.828 21.693 12.849L16.766 14.069C16.652 14.097 16.558 14.178 16.515 14.288C16.472 14.397 16.485 14.52 16.55 14.618L20.03 19.881C20.084 19.953 20.077 20.055 20.012 20.119C19.948 20.182 19.846 20.188 19.775 20.132L14.675 16.603C14.576 16.536 14.452 16.522 14.341 16.564C14.23 16.606 14.147 16.7 14.117 16.814L12.886 21.772C12.865 21.853 12.791 21.91 12.707 21.91C12.623 21.91 12.55 21.853 12.529 21.772L11.261 17.242C11.228 17.126 11.139 17.034 11.025 16.996C10.91 16.959 10.784 16.98 10.689 17.054L1.20199 24.485C1.12899 24.538 1.02899 24.53 0.96499 24.467C0.90199 24.404 0.89199 24.304 0.94299 24.23L8.31499 14.61C8.38699 14.515 8.40699 14.39 8.36999 14.277C8.33199 14.163 8.24099 14.076 8.12699 14.042L3.66999 12.755C3.60799 12.742 3.55799 12.698 3.53699 12.639C3.51599 12.58 3.52699 12.514 3.56699 12.465C3.59299 12.433 3.62899 12.411 3.66999 12.402L8.56199 11.202C8.67699 11.173 8.76999 11.089 8.81199 10.979C8.85499 10.868 8.83999 10.744 8.77399 10.645L5.19199 5.37101C5.15699 5.31701 5.15299 5.24901 5.17999 5.19101C5.20799 5.13301 5.26399 5.09401 5.32699 5.08701C5.36899 5.08301 5.41199 5.09301 5.44699 5.11601L10.547 8.59401C10.645 8.66101 10.768 8.67601 10.878 8.63501C10.989 8.59501 11.073 8.50401 11.104 8.39001L12.395 3.57101C12.426 3.50201 12.497 3.46001 12.572 3.46501C12.647 3.47001 12.711 3.52201 12.733 3.59401Z" fill="#EBEBEB" fill-opacity="0.5" style="fill:#EBEBEB;fill:color(display-p3 0.9216 0.9216 0.9216);fill-opacity:0.5;"/>
</svg>
