<svg width="252" height="50" viewBox="0 0 252 50" fill="none" xmlns="http://www.w3.org/2000/svg">
<path d="M25.7273 28.2453C25.5273 28.2453 25.3317 28.186 25.1653 28.0748C24.9989 27.9637 24.8693 27.8057 24.7927 27.6208C24.7161 27.4359 24.6961 27.2325 24.7351 27.0363C24.7742 26.84 24.8705 26.6598 25.012 26.5183C25.1535 26.3768 25.3337 26.2805 25.53 26.2414C25.7262 26.2024 25.9296 26.2224 26.1145 26.299C26.2994 26.3756 26.4574 26.5052 26.5685 26.6716C26.6797 26.838 26.739 27.0336 26.739 27.2336C26.739 27.502 26.6324 27.7593 26.4427 27.949C26.253 28.1387 25.9957 28.2453 25.7273 28.2453ZM14.5526 28.2453C14.3526 28.2453 14.157 28.186 13.9906 28.0748C13.8242 27.9637 13.6946 27.8057 13.618 27.6208C13.5414 27.4359 13.5214 27.2325 13.5604 27.0363C13.5995 26.84 13.6958 26.6598 13.8373 26.5183C13.9788 26.3768 14.159 26.2805 14.3553 26.2414C14.5515 26.2024 14.7549 26.2224 14.9398 26.299C15.1247 26.3756 15.2827 26.5052 15.3938 26.6716C15.505 26.838 15.5643 27.0336 15.5643 27.2336C15.5643 27.502 15.4577 27.7593 15.268 27.949C15.0783 28.1387 14.821 28.2453 14.5526 28.2453ZM26.0899 22.1551L28.1107 18.6564C28.1428 18.6085 28.1648 18.5545 28.1752 18.4977C28.1857 18.441 28.1843 18.3827 28.1713 18.3265C28.1583 18.2703 28.1339 18.2173 28.0996 18.1709C28.0653 18.1245 28.0218 18.0857 27.9719 18.0567C27.9219 18.0278 27.8666 18.0095 27.8093 18.0028C27.752 17.9962 27.6939 18.0013 27.6386 18.018C27.5834 18.0347 27.5322 18.0626 27.4882 18.0999C27.4441 18.1372 27.4082 18.1831 27.3827 18.2349L25.3366 21.7787C23.7022 21.0456 21.9312 20.6667 20.14 20.6667C18.3488 20.6667 16.5778 21.0456 14.9434 21.7787L12.8973 18.2349C12.8718 18.1831 12.8359 18.1372 12.7918 18.0999C12.7478 18.0626 12.6966 18.0347 12.6414 18.018C12.5861 18.0013 12.528 17.9962 12.4707 18.0028C12.4134 18.0095 12.3581 18.0278 12.3081 18.0567C12.2582 18.0857 12.2147 18.1245 12.1804 18.1709C12.1461 18.2173 12.1217 18.2703 12.1087 18.3265C12.0957 18.3827 12.0943 18.441 12.1048 18.4977C12.1152 18.5545 12.1372 18.6085 12.1693 18.6564L14.1901 22.1551C10.7201 24.0423 8.34734 27.5549 8 31.7048H32.28C31.9327 27.5549 29.5595 24.0423 26.0899 22.1551Z" fill="black"/>
<path d="M44.52 32V18.04H49.34C53.64 18.04 56.2 20.6 56.2 25.02C56.2 29.42 53.64 32 49.34 32H44.52ZM48.98 27.76H49.32C50.68 27.76 51.4 26.7 51.4 25.02C51.4 23.32 50.68 22.28 49.32 22.28H48.98V27.76ZM62.3433 32.2C58.7833 32.2 56.5033 29.96 56.5033 26.46C56.5033 22.98 58.8033 20.72 62.3433 20.72C65.9033 20.72 68.1833 22.96 68.1833 26.46C68.1833 29.96 65.9033 32.2 62.3433 32.2ZM60.7833 26.46C60.7833 27.42 61.4433 28.1 62.3433 28.1C63.2633 28.1 63.9033 27.42 63.9033 26.46C63.9033 25.48 63.2633 24.82 62.3433 24.82C61.4233 24.82 60.7833 25.48 60.7833 26.46ZM69.8016 32L67.9016 20.92H72.1816L72.8016 28.48H72.8416L74.0816 20.92H78.0016L79.2416 28.48H79.2816L79.8816 20.92H84.1016L82.2016 32H76.9816L76.0216 26.34H75.9816L75.0216 32H69.8016ZM84.3423 32V20.92H87.7623V21.78H87.8023C88.4623 21.1 89.3823 20.72 90.4823 20.72C92.5223 20.72 93.8823 22.04 93.8823 24.22V32H89.7423V25.46C89.7423 24.9 89.5423 24.6 89.1223 24.6C88.7023 24.6 88.4823 24.9 88.4823 25.46V32H84.3423ZM94.733 32V17.48H98.873V32H94.733ZM105.293 32.2C101.733 32.2 99.4525 29.96 99.4525 26.46C99.4525 22.98 101.753 20.72 105.293 20.72C108.853 20.72 111.133 22.96 111.133 26.46C111.133 29.96 108.853 32.2 105.293 32.2ZM103.733 26.46C103.733 27.42 104.393 28.1 105.293 28.1C106.213 28.1 106.853 27.42 106.853 26.46C106.853 25.48 106.213 24.82 105.293 24.82C104.373 24.82 103.733 25.48 103.733 26.46ZM114.866 32.12C112.686 32.12 111.326 30.72 111.326 28.4C111.326 26.06 112.726 24.76 114.886 24.76C115.686 24.76 116.386 24.94 116.966 25.24H117.006V25.22C117.006 24.36 116.286 23.84 115.046 23.84C114.066 23.84 113.086 24.14 112.306 24.54V21.42C113.546 20.98 115.026 20.72 116.346 20.72C119.446 20.72 121.126 22.16 121.126 25.22V32H117.266V31.38H117.226C116.646 31.86 115.806 32.12 114.866 32.12ZM115.186 28.34C115.186 28.96 115.606 29.36 116.186 29.36C116.766 29.36 117.186 28.96 117.186 28.34C117.186 27.72 116.766 27.32 116.186 27.32C115.606 27.32 115.186 27.72 115.186 28.34ZM126.4 32.1C123.56 32.1 121.66 29.9 121.66 26.46C121.66 22.94 123.74 20.8 126.38 20.8C127.2 20.8 127.98 21 128.68 21.44H128.72V17.48H132.86V32H129.12V31.22H129.08C128.38 31.82 127.42 32.1 126.4 32.1ZM125.94 26.42C125.94 27.54 126.66 28.14 127.46 28.14C128.26 28.14 128.98 27.54 128.98 26.42C128.98 25.28 128.26 24.7 127.46 24.7C126.66 24.7 125.94 25.28 125.94 26.42ZM137.348 21.02C137.348 18.6 138.668 17.22 141.048 17.22C141.628 17.22 142.248 17.3 142.908 17.48V21.18C142.588 21.04 142.308 20.98 142.108 20.98C141.748 20.98 141.488 21.18 141.488 21.68V22.06H143.008V25.38H141.488V32H137.348V25.38H136.348V22.06H137.348V21.02ZM149.003 32.2C145.443 32.2 143.163 29.96 143.163 26.46C143.163 22.98 145.463 20.72 149.003 20.72C152.563 20.72 154.843 22.96 154.843 26.46C154.843 29.96 152.563 32.2 149.003 32.2ZM147.443 26.46C147.443 27.42 148.103 28.1 149.003 28.1C149.923 28.1 150.563 27.42 150.563 26.46C150.563 25.48 149.923 24.82 149.003 24.82C148.083 24.82 147.443 25.48 147.443 26.46ZM155.397 32V20.92H158.817V21.76H158.857C159.417 21.06 160.157 20.82 160.957 20.82C161.277 20.82 161.557 20.86 161.837 20.92L161.797 24.9C161.417 24.74 161.017 24.64 160.677 24.64C160.017 24.64 159.537 25.02 159.537 25.96V32H155.397ZM164.62 32L167.06 18.04H173.58L176.1 32H171.7L171.52 30.6H169.12L168.94 32H164.62ZM169.58 27H171.06L170.36 21.46H170.3L169.58 27ZM176.335 32V20.92H179.755V21.78H179.795C180.455 21.1 181.375 20.72 182.475 20.72C184.515 20.72 185.875 22.04 185.875 24.22V32H181.735V25.46C181.735 24.9 181.535 24.6 181.115 24.6C180.695 24.6 180.475 24.9 180.475 25.46V32H176.335ZM191.185 32.1C188.345 32.1 186.445 29.9 186.445 26.46C186.445 22.94 188.525 20.8 191.165 20.8C191.985 20.8 192.765 21 193.465 21.44H193.505V17.48H197.645V32H193.905V31.22H193.865C193.165 31.82 192.205 32.1 191.185 32.1ZM190.725 26.42C190.725 27.54 191.445 28.14 192.245 28.14C193.045 28.14 193.765 27.54 193.765 26.42C193.765 25.28 193.045 24.7 192.245 24.7C191.445 24.7 190.725 25.28 190.725 26.42ZM198.522 32V20.92H201.942V21.76H201.982C202.542 21.06 203.282 20.82 204.082 20.82C204.402 20.82 204.682 20.86 204.962 20.92L204.922 24.9C204.542 24.74 204.142 24.64 203.802 24.64C203.142 24.64 202.662 25.02 202.662 25.96V32H198.522ZM210.722 32.2C207.162 32.2 204.882 29.96 204.882 26.46C204.882 22.98 207.182 20.72 210.722 20.72C214.282 20.72 216.562 22.96 216.562 26.46C216.562 29.96 214.282 32.2 210.722 32.2ZM209.162 26.46C209.162 27.42 209.822 28.1 210.722 28.1C211.642 28.1 212.282 27.42 212.282 26.46C212.282 25.48 211.642 24.82 210.722 24.82C209.802 24.82 209.162 25.48 209.162 26.46ZM217.136 32V20.92H221.276V32H217.136ZM216.916 18.36C216.916 17.14 217.776 16.32 219.216 16.32C220.656 16.32 221.516 17.14 221.516 18.36C221.516 19.58 220.656 20.38 219.216 20.38C217.776 20.38 216.916 19.58 216.916 18.36ZM226.634 32.1C223.794 32.1 221.894 29.9 221.894 26.46C221.894 22.94 223.974 20.8 226.614 20.8C227.434 20.8 228.214 21 228.914 21.44H228.954V17.48H233.094V32H229.354V31.22H229.314C228.614 31.82 227.654 32.1 226.634 32.1ZM226.174 26.42C226.174 27.54 226.894 28.14 227.694 28.14C228.494 28.14 229.214 27.54 229.214 26.42C229.214 25.28 228.494 24.7 227.694 24.7C226.894 24.7 226.174 25.28 226.174 26.42Z" fill="black"/>
</svg>
