<svg width="216" height="50" viewBox="0 0 216 50" fill="none" xmlns="http://www.w3.org/2000/svg">
<path d="M29.6228 30.3654C29.2996 31.099 28.917 31.7744 28.4738 32.3953C27.8697 33.2418 27.3751 33.8277 26.9938 34.1531C26.4029 34.6871 25.7697 34.9606 25.0918 34.9761C24.605 34.9761 24.018 34.8401 23.3347 34.564C22.6492 34.2891 22.0192 34.1531 21.4432 34.1531C20.8391 34.1531 20.1911 34.2891 19.4981 34.564C18.804 34.8401 18.2448 34.9839 17.8174 34.9982C17.1672 35.0254 16.5191 34.7441 15.8722 34.1531C15.4594 33.7991 14.943 33.1925 14.3243 32.3331C13.6606 31.4153 13.1149 30.3511 12.6874 29.1378C12.2295 27.8273 12 26.5583 12 25.3297C12 23.9224 12.3095 22.7085 12.9293 21.6913C13.4164 20.8743 14.0645 20.2298 14.8756 19.7567C15.6867 19.2836 16.5631 19.0424 17.5068 19.027C18.0233 19.027 18.7005 19.184 19.542 19.4925C20.3812 19.8021 20.9201 19.959 21.1563 19.959C21.333 19.959 21.9315 19.7755 22.9463 19.4096C23.9059 19.0702 24.7158 18.9297 25.3793 18.985C27.1772 19.1276 28.5279 19.8241 29.4262 21.0789C27.8183 22.0363 27.0229 23.3773 27.0387 25.0975C27.0532 26.4374 27.5479 27.5525 28.52 28.4379C28.9606 28.8488 29.4526 29.1664 30 29.3919C29.8813 29.7302 29.756 30.0542 29.6228 30.3654ZM25.4993 14.4201C25.4993 15.4704 25.1089 16.451 24.3307 17.3586C23.3915 18.4376 22.2555 19.0611 21.0236 18.9628C21.0079 18.8367 20.9988 18.7041 20.9988 18.5647C20.9988 17.5565 21.4455 16.4776 22.2386 15.5953C22.6346 15.1486 23.1382 14.7772 23.7489 14.4809C24.3584 14.1891 24.9348 14.0276 25.4769 14C25.4927 14.1404 25.4993 14.2808 25.4993 14.4201Z" fill="black"/>
<path d="M44.52 32V18.04H49.34C53.64 18.04 56.2 20.6 56.2 25.02C56.2 29.42 53.64 32 49.34 32H44.52ZM48.98 27.76H49.32C50.68 27.76 51.4 26.7 51.4 25.02C51.4 23.32 50.68 22.28 49.32 22.28H48.98V27.76ZM62.3433 32.2C58.7833 32.2 56.5033 29.96 56.5033 26.46C56.5033 22.98 58.8033 20.72 62.3433 20.72C65.9033 20.72 68.1833 22.96 68.1833 26.46C68.1833 29.96 65.9033 32.2 62.3433 32.2ZM60.7833 26.46C60.7833 27.42 61.4433 28.1 62.3433 28.1C63.2633 28.1 63.9033 27.42 63.9033 26.46C63.9033 25.48 63.2633 24.82 62.3433 24.82C61.4233 24.82 60.7833 25.48 60.7833 26.46ZM69.8016 32L67.9016 20.92H72.1816L72.8016 28.48H72.8416L74.0816 20.92H78.0016L79.2416 28.48H79.2816L79.8816 20.92H84.1016L82.2016 32H76.9816L76.0216 26.34H75.9816L75.0216 32H69.8016ZM84.3423 32V20.92H87.7623V21.78H87.8023C88.4623 21.1 89.3823 20.72 90.4823 20.72C92.5223 20.72 93.8823 22.04 93.8823 24.22V32H89.7423V25.46C89.7423 24.9 89.5423 24.6 89.1223 24.6C88.7023 24.6 88.4823 24.9 88.4823 25.46V32H84.3423ZM94.733 32V17.48H98.873V32H94.733ZM105.293 32.2C101.733 32.2 99.4525 29.96 99.4525 26.46C99.4525 22.98 101.753 20.72 105.293 20.72C108.853 20.72 111.133 22.96 111.133 26.46C111.133 29.96 108.853 32.2 105.293 32.2ZM103.733 26.46C103.733 27.42 104.393 28.1 105.293 28.1C106.213 28.1 106.853 27.42 106.853 26.46C106.853 25.48 106.213 24.82 105.293 24.82C104.373 24.82 103.733 25.48 103.733 26.46ZM114.866 32.12C112.686 32.12 111.326 30.72 111.326 28.4C111.326 26.06 112.726 24.76 114.886 24.76C115.686 24.76 116.386 24.94 116.966 25.24H117.006V25.22C117.006 24.36 116.286 23.84 115.046 23.84C114.066 23.84 113.086 24.14 112.306 24.54V21.42C113.546 20.98 115.026 20.72 116.346 20.72C119.446 20.72 121.126 22.16 121.126 25.22V32H117.266V31.38H117.226C116.646 31.86 115.806 32.12 114.866 32.12ZM115.186 28.34C115.186 28.96 115.606 29.36 116.186 29.36C116.766 29.36 117.186 28.96 117.186 28.34C117.186 27.72 116.766 27.32 116.186 27.32C115.606 27.32 115.186 27.72 115.186 28.34ZM126.4 32.1C123.56 32.1 121.66 29.9 121.66 26.46C121.66 22.94 123.74 20.8 126.38 20.8C127.2 20.8 127.98 21 128.68 21.44H128.72V17.48H132.86V32H129.12V31.22H129.08C128.38 31.82 127.42 32.1 126.4 32.1ZM125.94 26.42C125.94 27.54 126.66 28.14 127.46 28.14C128.26 28.14 128.98 27.54 128.98 26.42C128.98 25.28 128.26 24.7 127.46 24.7C126.66 24.7 125.94 25.28 125.94 26.42ZM137.348 21.02C137.348 18.6 138.668 17.22 141.048 17.22C141.628 17.22 142.248 17.3 142.908 17.48V21.18C142.588 21.04 142.308 20.98 142.108 20.98C141.748 20.98 141.488 21.18 141.488 21.68V22.06H143.008V25.38H141.488V32H137.348V25.38H136.348V22.06H137.348V21.02ZM149.003 32.2C145.443 32.2 143.163 29.96 143.163 26.46C143.163 22.98 145.463 20.72 149.003 20.72C152.563 20.72 154.843 22.96 154.843 26.46C154.843 29.96 152.563 32.2 149.003 32.2ZM147.443 26.46C147.443 27.42 148.103 28.1 149.003 28.1C149.923 28.1 150.563 27.42 150.563 26.46C150.563 25.48 149.923 24.82 149.003 24.82C148.083 24.82 147.443 25.48 147.443 26.46ZM155.397 32V20.92H158.817V21.76H158.857C159.417 21.06 160.157 20.82 160.957 20.82C161.277 20.82 161.557 20.86 161.837 20.92L161.797 24.9C161.417 24.74 161.017 24.64 160.677 24.64C160.017 24.64 159.537 25.02 159.537 25.96V32H155.397ZM165.28 32V20.92H169.42V32H165.28ZM165.06 18.36C165.06 17.14 165.92 16.32 167.36 16.32C168.8 16.32 169.66 17.14 169.66 18.36C169.66 19.58 168.8 20.38 167.36 20.38C165.92 20.38 165.06 19.58 165.06 18.36ZM177.339 32.22C172.919 32.22 170.039 29.38 170.039 25.02C170.039 20.66 172.919 17.82 177.339 17.82C181.779 17.82 184.679 20.66 184.679 25.02C184.679 29.36 181.779 32.22 177.339 32.22ZM174.939 25.02C174.939 26.54 175.919 27.58 177.359 27.58C178.799 27.58 179.799 26.54 179.799 25.02C179.799 23.48 178.799 22.44 177.359 22.44C175.919 22.44 174.939 23.48 174.939 25.02ZM188.224 32.22C187.164 32.22 185.884 32.02 184.924 31.7V26.7C186.164 27.44 187.084 27.86 187.704 27.86C188.024 27.86 188.264 27.76 188.264 27.44C188.264 27.18 188.124 26.98 187.804 26.7L186.524 25.6C185.264 24.52 184.864 23.22 184.864 22C184.864 19.42 186.664 17.82 189.424 17.82C190.244 17.82 191.204 17.96 192.204 18.3V22.48C191.204 21.94 190.464 21.56 189.924 21.56C189.624 21.56 189.424 21.68 189.424 21.94C189.424 22.14 189.544 22.32 189.864 22.62L191.064 23.68C192.564 25 193.064 26.22 193.064 27.72C193.064 30.52 191.264 32.22 188.224 32.22Z" fill="black"/>
</svg>
