<svg width="120" height="41" viewBox="0 0 120 41" fill="none" xmlns="http://www.w3.org/2000/svg">
<g clip-path="url(#clip0_1061_42888)">
<g clip-path="url(#clip1_1061_42888)">
<path d="M59.78 33.3043C59.729 33.3043 59.6786 33.294 59.6318 33.2741C59.5849 33.2541 59.5426 33.2249 59.5073 33.1882C59.472 33.1515 59.4445 33.108 59.4265 33.0604C59.4085 33.0128 59.4002 32.9621 59.4023 32.9112L60.4155 8.10346C60.4195 8.00604 60.461 7.91394 60.5314 7.84645C60.6018 7.77895 60.6956 7.74128 60.7931 7.74131H70.7683C70.9578 7.74131 71.1181 7.88177 71.1429 8.06948L73.1161 22.9851C73.1175 22.9987 73.124 23.0113 73.1342 23.0205C73.1444 23.0297 73.1577 23.0347 73.1714 23.0347C73.1852 23.0346 73.1984 23.0295 73.2085 23.0203C73.2187 23.011 73.2251 22.9983 73.2264 22.9847L75.0718 8.07252C75.0831 7.9811 75.1275 7.89697 75.1966 7.83597C75.2656 7.77497 75.3546 7.7413 75.4468 7.74131H85.4518C85.5493 7.74128 85.6431 7.77895 85.7135 7.84645C85.7839 7.91394 85.8254 8.00604 85.8294 8.10346L86.8428 32.9112C86.8449 32.9621 86.8366 33.0128 86.8186 33.0604C86.8005 33.108 86.7731 33.1515 86.7378 33.1882C86.7025 33.2249 86.6602 33.2541 86.6133 33.2741C86.5665 33.294 86.5161 33.3043 86.4651 33.3043H80.0531C79.9539 33.3043 79.8586 33.2653 79.7879 33.1957C79.7171 33.1261 79.6766 33.0315 79.6751 32.9323L79.4531 18.0324C79.453 18.019 79.4479 18.0061 79.4388 17.9962C79.4297 17.9863 79.4172 17.9803 79.4038 17.9792C79.3904 17.9781 79.377 17.982 79.3664 17.9903C79.3558 17.9985 79.3487 18.0105 79.3464 18.0237L76.6694 32.993C76.6538 33.0803 76.6079 33.1593 76.5399 33.2163C76.4719 33.2732 76.3859 33.3043 76.2972 33.3043H69.7846C69.6015 33.3043 69.4447 33.1731 69.4124 32.993L66.7354 18.0237C66.7331 18.0105 66.726 17.9985 66.7154 17.9903C66.7048 17.982 66.6914 17.9781 66.678 17.9792C66.6646 17.9803 66.6521 17.9863 66.643 17.9962C66.6339 18.0061 66.6288 18.019 66.6287 18.0324L66.4067 32.9323C66.4052 33.0314 66.3648 33.1261 66.2941 33.1957C66.2234 33.2653 66.1281 33.3043 66.0289 33.3043H59.78ZM88.3855 33.3043C88.2853 33.3043 88.1892 33.2645 88.1183 33.1937C88.0475 33.1228 88.0077 33.0267 88.0077 32.9266V15.6183C88.0077 15.5181 88.0475 15.422 88.1183 15.3512C88.1892 15.2804 88.2853 15.2406 88.3855 15.2406H94.3836C94.5925 15.2406 94.7617 15.4097 94.7617 15.6183V32.9266C94.7617 32.9762 94.7519 33.0253 94.7329 33.0712C94.7139 33.117 94.686 33.1586 94.6509 33.1937C94.6158 33.2288 94.5741 33.2566 94.5283 33.2756C94.4824 33.2946 94.4333 33.3043 94.3836 33.3043H88.3855ZM96.6055 33.3043C96.5559 33.3043 96.5067 33.2946 96.4609 33.2756C96.415 33.2566 96.3733 33.2288 96.3382 33.1937C96.3031 33.1586 96.2753 33.117 96.2563 33.0712C96.2373 33.0253 96.2275 32.9762 96.2275 32.9266V8.11883C96.2275 8.06922 96.2373 8.02008 96.2563 7.97424C96.2753 7.92841 96.3031 7.88676 96.3382 7.85168C96.3733 7.81661 96.415 7.78879 96.4609 7.76982C96.5067 7.75085 96.5559 7.74109 96.6055 7.74112H102.604C102.704 7.74112 102.8 7.78091 102.871 7.85175C102.942 7.92258 102.981 8.01866 102.981 8.11883V32.9266C102.981 33.0267 102.942 33.1228 102.871 33.1937C102.8 33.2645 102.704 33.3043 102.604 33.3043H96.6055ZM109.604 33.3335C106.048 33.3335 103.829 31.2175 103.829 27.4353C103.829 23.6203 106.113 21.501 109.637 21.501C110.937 21.501 112.075 21.7921 113.019 22.2777C113.026 22.2814 113.035 22.2835 113.043 22.2835H113.063C113.071 22.2835 113.08 22.2801 113.086 22.274C113.092 22.2679 113.095 22.2595 113.095 22.2509C113.095 20.8488 111.921 20.0011 109.898 20.0011C108.525 20.0011 107.152 20.3617 105.986 20.8765C105.728 20.9906 105.428 20.8067 105.428 20.5242V16.3225C105.428 16.1627 105.528 16.0197 105.68 15.9685C107.649 15.3042 109.954 14.9145 112.019 14.9145C117.076 14.9145 119.817 17.2622 119.817 22.2509V32.9266C119.817 32.9762 119.807 33.0253 119.788 33.0712C119.769 33.117 119.741 33.1586 119.706 33.1937C119.671 33.2288 119.629 33.2566 119.583 33.2756C119.538 33.2946 119.488 33.3043 119.439 33.3043H113.897C113.797 33.3043 113.701 33.2645 113.63 33.1937C113.559 33.1228 113.52 33.0267 113.52 32.9266V32.3414C113.52 32.3323 113.517 32.3234 113.512 32.3157C113.507 32.308 113.5 32.3019 113.492 32.298C113.484 32.2941 113.475 32.2926 113.466 32.2938C113.457 32.2949 113.448 32.2986 113.441 32.3044C112.495 33.0799 111.13 33.3335 109.604 33.3335ZM110.126 27.3373C110.126 28.3482 110.811 29.0002 111.758 29.0002C112.704 29.0002 113.389 28.3482 113.389 27.3373C113.389 26.3266 112.704 25.6744 111.758 25.6744C110.811 25.6744 110.126 26.3266 110.126 27.3373ZM94.5353 10.9517C94.5353 12.7247 93.0968 14.1621 91.3227 14.1621C89.5485 14.1621 88.1102 12.7247 88.1102 10.9517C88.1102 9.17852 89.5485 7.74131 91.3227 7.74131C93.0968 7.74131 94.5353 9.17852 94.5353 10.9517Z" fill="#EBEBEB" style="fill:#EBEBEB;fill:color(display-p3 0.9216 0.9216 0.9216);fill-opacity:1;"/>
<path d="M59.78 33.3043C59.729 33.3043 59.6786 33.294 59.6318 33.2741C59.5849 33.2541 59.5426 33.2249 59.5073 33.1882C59.472 33.1515 59.4445 33.108 59.4265 33.0604C59.4085 33.0128 59.4002 32.9621 59.4023 32.9112L60.4155 8.10346C60.4195 8.00604 60.461 7.91394 60.5314 7.84645C60.6018 7.77895 60.6956 7.74128 60.7931 7.74131H70.7683C70.9578 7.74131 71.1181 7.88177 71.1429 8.06948L73.1161 22.9851C73.1175 22.9987 73.124 23.0113 73.1342 23.0205C73.1444 23.0297 73.1577 23.0347 73.1714 23.0347C73.1852 23.0346 73.1984 23.0295 73.2085 23.0203C73.2187 23.011 73.2251 22.9983 73.2264 22.9847L75.0718 8.07252C75.0831 7.9811 75.1275 7.89697 75.1966 7.83597C75.2656 7.77497 75.3546 7.7413 75.4468 7.74131H85.4518C85.5493 7.74128 85.6431 7.77895 85.7135 7.84645C85.7839 7.91394 85.8254 8.00604 85.8294 8.10346L86.8428 32.9112C86.8449 32.9621 86.8366 33.0128 86.8186 33.0604C86.8005 33.108 86.7731 33.1515 86.7378 33.1882C86.7025 33.2249 86.6602 33.2541 86.6133 33.2741C86.5665 33.294 86.5161 33.3043 86.4651 33.3043H80.0531C79.9539 33.3043 79.8586 33.2653 79.7879 33.1957C79.7171 33.1261 79.6766 33.0315 79.6751 32.9323L79.4531 18.0324C79.453 18.019 79.4479 18.0061 79.4388 17.9962C79.4297 17.9863 79.4172 17.9803 79.4038 17.9792C79.3904 17.9781 79.377 17.982 79.3664 17.9903C79.3558 17.9985 79.3487 18.0105 79.3464 18.0237L76.6694 32.993C76.6538 33.0803 76.6079 33.1593 76.5399 33.2163C76.4719 33.2732 76.3859 33.3043 76.2972 33.3043H69.7846C69.6015 33.3043 69.4447 33.1731 69.4124 32.993L66.7354 18.0237C66.7331 18.0105 66.726 17.9985 66.7154 17.9903C66.7048 17.982 66.6914 17.9781 66.678 17.9792C66.6646 17.9803 66.6521 17.9863 66.643 17.9962C66.6339 18.0061 66.6288 18.019 66.6287 18.0324L66.4067 32.9323C66.4052 33.0314 66.3648 33.1261 66.2941 33.1957C66.2234 33.2653 66.1281 33.3043 66.0289 33.3043H59.78ZM88.3855 33.3043C88.2853 33.3043 88.1892 33.2645 88.1183 33.1937C88.0475 33.1228 88.0077 33.0267 88.0077 32.9266V15.6183C88.0077 15.5181 88.0475 15.422 88.1183 15.3512C88.1892 15.2804 88.2853 15.2406 88.3855 15.2406H94.3836C94.5925 15.2406 94.7617 15.4097 94.7617 15.6183V32.9266C94.7617 32.9762 94.7519 33.0253 94.7329 33.0712C94.7139 33.117 94.686 33.1586 94.6509 33.1937C94.6158 33.2288 94.5741 33.2566 94.5283 33.2756C94.4824 33.2946 94.4333 33.3043 94.3836 33.3043H88.3855ZM96.6055 33.3043C96.5559 33.3043 96.5067 33.2946 96.4609 33.2756C96.415 33.2566 96.3733 33.2288 96.3382 33.1937C96.3031 33.1586 96.2753 33.117 96.2563 33.0712C96.2373 33.0253 96.2275 32.9762 96.2275 32.9266V8.11883C96.2275 8.06922 96.2373 8.02008 96.2563 7.97424C96.2753 7.92841 96.3031 7.88676 96.3382 7.85168C96.3733 7.81661 96.415 7.78879 96.4609 7.76982C96.5067 7.75085 96.5559 7.74109 96.6055 7.74112H102.604C102.704 7.74112 102.8 7.78091 102.871 7.85175C102.942 7.92258 102.981 8.01866 102.981 8.11883V32.9266C102.981 33.0267 102.942 33.1228 102.871 33.1937C102.8 33.2645 102.704 33.3043 102.604 33.3043H96.6055ZM109.604 33.3335C106.048 33.3335 103.829 31.2175 103.829 27.4353C103.829 23.6203 106.113 21.501 109.637 21.501C110.937 21.501 112.075 21.7921 113.019 22.2777C113.026 22.2814 113.035 22.2835 113.043 22.2835H113.063C113.071 22.2835 113.08 22.2801 113.086 22.274C113.092 22.2679 113.095 22.2595 113.095 22.2509C113.095 20.8488 111.921 20.0011 109.898 20.0011C108.525 20.0011 107.152 20.3617 105.986 20.8765C105.728 20.9906 105.428 20.8067 105.428 20.5242V16.3225C105.428 16.1627 105.528 16.0197 105.68 15.9685C107.649 15.3042 109.954 14.9145 112.019 14.9145C117.076 14.9145 119.817 17.2622 119.817 22.2509V32.9266C119.817 32.9762 119.807 33.0253 119.788 33.0712C119.769 33.117 119.741 33.1586 119.706 33.1937C119.671 33.2288 119.629 33.2566 119.583 33.2756C119.538 33.2946 119.488 33.3043 119.439 33.3043H113.897C113.797 33.3043 113.701 33.2645 113.63 33.1937C113.559 33.1228 113.52 33.0267 113.52 32.9266V32.3414C113.52 32.3323 113.517 32.3234 113.512 32.3157C113.507 32.308 113.5 32.3019 113.492 32.298C113.484 32.2941 113.475 32.2926 113.466 32.2938C113.457 32.2949 113.448 32.2986 113.441 32.3044C112.495 33.0799 111.13 33.3335 109.604 33.3335ZM110.126 27.3373C110.126 28.3482 110.811 29.0002 111.758 29.0002C112.704 29.0002 113.389 28.3482 113.389 27.3373C113.389 26.3266 112.704 25.6744 111.758 25.6744C110.811 25.6744 110.126 26.3266 110.126 27.3373ZM94.5353 10.9517C94.5353 12.7247 93.0968 14.1621 91.3227 14.1621C89.5485 14.1621 88.1102 12.7247 88.1102 10.9517C88.1102 9.17852 89.5485 7.74131 91.3227 7.74131C93.0968 7.74131 94.5353 9.17852 94.5353 10.9517Z" fill="#EBEBEB" style="fill:#EBEBEB;fill:color(display-p3 0.9216 0.9216 0.9216);fill-opacity:1;"/>
<path fill-rule="evenodd" clip-rule="evenodd" d="M25.3209 38.2083C22.9527 39.584 20.2726 40.3594 17.4342 40.3594C7.8057 40.3594 0 31.4366 0 20.4297C0 9.42281 7.8057 0.5 17.4342 0.5C20.2726 0.5 22.9527 1.27536 25.3209 2.65108C27.6892 1.27536 30.3693 0.5 33.2079 0.5C42.8364 0.5 50.6419 9.42281 50.6419 20.4297C50.6419 31.4366 42.8364 40.3594 33.2079 40.3594C30.3693 40.3594 27.6892 39.584 25.3209 38.2083ZM33.0839 22.4202C33.0839 28.8118 30.349 33.9929 26.9753 33.9929C23.6016 33.9929 20.8667 28.8118 20.8667 22.4202C20.8667 18.6229 21.832 15.2531 23.3229 13.1428C23.2247 13.0582 23.1239 12.9692 23.0197 12.8771L23.0056 12.8644C21.8782 11.869 20.378 10.5446 17.876 10.5446C16.0851 10.5446 14.6022 11.1994 13.4013 12.29C15.0456 14.2636 16.1582 18.0594 16.1582 22.4177C16.1582 27.6532 14.5525 32.076 12.3494 33.5053C11.8633 33.8206 11.348 33.9902 10.8146 33.9904C10.7973 33.9904 10.7801 33.9904 10.7628 33.9899C10.2416 33.9796 9.73804 33.8078 9.26278 33.4962C8.32576 32.8822 7.49753 31.7266 6.85576 30.1972C5.40133 27.5015 4.70449 24.3921 4.70449 20.0488C4.70449 17.1018 5.72962 13.5145 7.80133 10.6097C9.91842 7.6411 13.2837 5.20569 17.876 5.20569C20.6138 5.20569 22.7766 6.14333 24.3222 7.12615C24.6598 7.34082 25.004 7.58814 25.3276 7.83603C25.6325 7.60769 25.9563 7.38106 26.2779 7.18252C27.8332 6.2221 29.9839 5.35601 32.7659 5.35601C37.3485 5.35601 40.736 7.54069 42.8935 10.4895C44.9905 13.3556 45.9376 16.9329 45.9376 20.0488C45.9376 23.0507 45.5759 25.4061 44.898 27.4738C44.2228 29.534 43.2735 31.1813 42.2766 32.751C41.486 33.9958 39.8345 34.3649 38.5884 33.5753C37.342 32.7855 36.9725 31.1361 37.7632 29.891C38.6753 28.4547 39.3482 27.2464 39.8184 25.8124C40.286 24.3858 40.5925 22.6081 40.5925 20.0488C40.5925 17.9047 39.9169 15.4701 38.5779 13.6396C37.2991 11.8918 35.4372 10.6949 32.7659 10.6949C31.2234 10.6949 30.0946 11.1129 29.2115 11.6477C31.4791 13.3383 33.0839 17.5241 33.0839 22.4202Z" fill="#EBEBEB" style="fill:#EBEBEB;fill:color(display-p3 0.9216 0.9216 0.9216);fill-opacity:1;"/>
</g>
</g>
<defs>
<clipPath id="clip0_1061_42888">
<rect width="120" height="39.8594" fill="white" style="fill:white;fill:white;fill-opacity:1;" transform="translate(0 0.5)"/>
</clipPath>
<clipPath id="clip1_1061_42888">
<rect width="120" height="39.8594" fill="white" style="fill:white;fill:white;fill-opacity:1;" transform="translate(0 0.5)"/>
</clipPath>
</defs>
</svg>
