<svg width="32" height="32" viewBox="0 0 32 32" fill="none" xmlns="http://www.w3.org/2000/svg">
<path d="M15.9947 6.15421C19.2 6.15421 19.5796 6.16646 20.8456 6.22421C22.016 6.27763 22.6516 6.47314 23.0746 6.63754C23.596 6.82998 24.0677 7.13684 24.4549 7.53554C24.8536 7.92276 25.1605 8.39441 25.3529 8.91581C25.5173 9.33882 25.7129 9.97444 25.7662 11.1449C25.824 12.4107 25.8362 12.7904 25.8362 15.9958C25.8362 19.2012 25.824 19.5808 25.7662 20.8467C25.7128 22.0171 25.5173 22.6527 25.3529 23.0758C24.949 24.1227 24.1216 24.9502 23.0746 25.354C22.6516 25.5184 22.016 25.714 20.8456 25.7674C19.58 25.8251 19.2003 25.8374 15.9947 25.8374C12.789 25.8374 12.4095 25.8251 11.1437 25.7674C9.97332 25.714 9.33774 25.5184 8.91469 25.354C8.39328 25.1616 7.92163 24.8548 7.53441 24.4561C7.13571 24.0688 6.82886 23.5972 6.63642 23.0758C6.47202 22.6528 6.27646 22.0171 6.22309 20.8467C6.16534 19.5809 6.15309 19.2012 6.15309 15.9958C6.15309 12.7904 6.16534 12.4108 6.22309 11.1449C6.27651 9.97444 6.47202 9.33886 6.63642 8.91581C6.82888 8.39438 7.13577 7.92271 7.53451 7.53549C7.92173 7.13679 8.39338 6.82994 8.91479 6.6375C9.33779 6.4731 9.97341 6.27754 11.1438 6.22417C12.4097 6.16641 12.7893 6.15421 15.9947 6.15421ZM15.9947 3.99121C12.7345 3.99121 12.3256 4.00503 11.0454 4.06345C9.76761 4.12178 8.89501 4.32468 8.13144 4.62145C7.33045 4.92288 6.60484 5.3954 6.00523 6.00606C5.39442 6.60564 4.92177 7.33125 4.62023 8.13228C4.3237 8.8959 4.1208 9.76849 4.06271 11.0463C4.00405 12.3265 3.99023 12.7354 3.99023 15.9957C3.99023 19.2559 4.00405 19.6648 4.06271 20.945C4.12103 22.2228 4.32394 23.0954 4.62071 23.859C4.92214 24.66 5.39466 25.3856 6.00532 25.9852C6.60494 26.5959 7.33054 27.0684 8.13154 27.3698C8.89515 27.6666 9.76775 27.8695 11.0455 27.9278C12.3259 27.9862 12.7347 28 15.9948 28C19.255 28 19.664 27.9862 20.9442 27.9278C22.222 27.8695 23.0946 27.6666 23.8582 27.3698C25.4706 26.7462 26.7454 25.4714 27.369 23.859C27.6658 23.0954 27.8687 22.2228 27.927 20.945C27.9854 19.6646 27.9992 19.2558 27.9992 15.9957C27.9992 12.7355 27.9854 12.3265 27.927 11.0463C27.8687 9.76849 27.6658 8.8959 27.369 8.13233C27.0676 7.33133 26.595 6.60572 25.9844 6.00611C25.3848 5.39532 24.6591 4.9227 23.858 4.62121C23.0944 4.32468 22.2218 4.12178 20.944 4.06369C19.6638 4.00503 19.2549 3.99121 15.9947 3.99121Z" fill="#EBEBEB"/>
<path d="M15.9945 9.83105C12.59 9.83105 9.83008 12.591 9.83008 15.9955C9.83008 19.4001 12.59 22.16 15.9945 22.16C19.399 22.16 22.159 19.4001 22.159 15.9955C22.159 12.591 19.399 9.83105 15.9945 9.83105ZM15.9945 19.997C13.7846 19.997 11.9931 18.2054 11.9931 15.9955C11.9931 13.7856 13.7846 11.9941 15.9946 11.9941C18.2045 11.9941 19.996 13.7856 19.996 15.9955C19.996 18.2055 18.2045 19.997 15.9945 19.997Z" fill="#EBEBEB"/>
<path d="M22.4034 11.0284C23.199 11.0284 23.8439 10.3835 23.8439 9.58796C23.8439 8.79239 23.199 8.14746 22.4034 8.14746C21.6078 8.14746 20.9629 8.79239 20.9629 9.58796C20.9629 10.3835 21.6078 11.0284 22.4034 11.0284Z" fill="#EBEBEB"/>
</svg>
