<svg width="196" height="83" viewBox="0 0 196 83" fill="none" xmlns="http://www.w3.org/2000/svg">
<g clip-path="url(#clip0_208_260)">
<path d="M4.81663 47.6946H19.7348V14.8478H24.5514V1H0V14.8478H4.81663V47.6946Z" fill="white"/>
<path d="M4.81663 47.6946H19.7348V14.8478H24.5514V1H0V14.8478H4.81663V47.6946Z" fill="url(#paint0_linear_208_260)"/>
<path d="M43.9303 48.2966C47.8104 48.2966 52.1587 47.6946 55.905 46.089V33.9805C52.6939 35.7199 49.1484 36.8572 45.0007 36.8572C41.522 36.8572 38.244 36.1213 36.7054 32.9102H58.8485C61.6582 18.7948 54.634 10.0312 41.7896 10.0312C30.0825 10.0312 22.9914 17.1892 22.9914 28.9632C22.9914 40.7372 30.0825 48.2966 43.9303 48.2966ZM36.4378 24.6149C37.3075 22.0059 39.1137 20.4003 41.8565 20.4003C44.1979 20.4003 46.4055 21.6045 46.8069 24.6149H36.4378Z" fill="white"/>
<path d="M43.9303 48.2966C47.8104 48.2966 52.1587 47.6946 55.905 46.089V33.9805C52.6939 35.7199 49.1484 36.8572 45.0007 36.8572C41.522 36.8572 38.244 36.1213 36.7054 32.9102H58.8485C61.6582 18.7948 54.634 10.0312 41.7896 10.0312C30.0825 10.0312 22.9914 17.1892 22.9914 28.9632C22.9914 40.7372 30.0825 48.2966 43.9303 48.2966ZM36.4378 24.6149C37.3075 22.0059 39.1137 20.4003 41.8565 20.4003C44.1979 20.4003 46.4055 21.6045 46.8069 24.6149H36.4378Z" fill="url(#paint1_linear_208_260)"/>
<path d="M72.0655 48.096C75.2097 48.096 78.0194 47.2263 79.9594 45.6207H80.0932V47.6946H93.0045V25.0163C93.0045 14.7809 87.3851 9.96429 77.0159 9.96429C72.6007 9.96429 67.6503 10.834 63.5026 12.3057V22.7417C66.1116 21.4038 69.3896 20.4003 72.6676 20.4003C76.8152 20.4003 79.2235 22.1397 79.2235 25.0163V25.0832H79.0898C77.1497 24.0797 74.8083 23.4776 72.1324 23.4776C64.9075 23.4776 60.2246 27.826 60.2246 35.653C60.2246 43.4131 64.7737 48.096 72.0655 48.096ZM73.1359 35.4523C73.1359 33.3785 74.5407 32.0405 76.4807 32.0405C78.4208 32.0405 79.8256 33.3785 79.8256 35.4523C79.8256 37.5261 78.4208 38.8641 76.4807 38.8641C74.5407 38.8641 73.1359 37.5261 73.1359 35.4523Z" fill="white"/>
<path d="M72.0655 48.096C75.2097 48.096 78.0194 47.2263 79.9594 45.6207H80.0932V47.6946H93.0045V25.0163C93.0045 14.7809 87.3851 9.96429 77.0159 9.96429C72.6007 9.96429 67.6503 10.834 63.5026 12.3057V22.7417C66.1116 21.4038 69.3896 20.4003 72.6676 20.4003C76.8152 20.4003 79.2235 22.1397 79.2235 25.0163V25.0832H79.0898C77.1497 24.0797 74.8083 23.4776 72.1324 23.4776C64.9075 23.4776 60.2246 27.826 60.2246 35.653C60.2246 43.4131 64.7737 48.096 72.0655 48.096ZM73.1359 35.4523C73.1359 33.3785 74.5407 32.0405 76.4807 32.0405C78.4208 32.0405 79.8256 33.3785 79.8256 35.4523C79.8256 37.5261 78.4208 38.8641 76.4807 38.8641C74.5407 38.8641 73.1359 37.5261 73.1359 35.4523Z" fill="url(#paint2_linear_208_260)"/>
<path d="M102.818 48.3635C111.916 48.3635 117.335 43.6807 117.335 35.653C117.335 31.2377 115.729 28.0936 112.384 25.4176L110.11 23.6114C109.307 23.0093 108.973 22.541 108.973 22.0059C108.973 21.3369 109.441 21.0024 110.377 21.0024C111.582 21.0024 113.187 21.5376 115.194 22.6079V10.834C112.719 10.2319 110.444 9.96429 108.371 9.96429C99.8745 9.96429 94.991 14.3126 94.991 21.8721C94.991 25.7521 96.2621 28.7625 99.2056 31.3046L100.811 32.7095C102.015 33.713 102.484 34.3819 102.484 34.984C102.484 35.653 101.948 36.0544 100.945 36.0544C99.3394 36.0544 97.4662 35.0509 95.1248 33.044V47.3601C97.6 48.0291 100.343 48.3635 102.818 48.3635Z" fill="white"/>
<path d="M102.818 48.3635C111.916 48.3635 117.335 43.6807 117.335 35.653C117.335 31.2377 115.729 28.0936 112.384 25.4176L110.11 23.6114C109.307 23.0093 108.973 22.541 108.973 22.0059C108.973 21.3369 109.441 21.0024 110.377 21.0024C111.582 21.0024 113.187 21.5376 115.194 22.6079V10.834C112.719 10.2319 110.444 9.96429 108.371 9.96429C99.8745 9.96429 94.991 14.3126 94.991 21.8721C94.991 25.7521 96.2621 28.7625 99.2056 31.3046L100.811 32.7095C102.015 33.713 102.484 34.3819 102.484 34.984C102.484 35.653 101.948 36.0544 100.945 36.0544C99.3394 36.0544 97.4662 35.0509 95.1248 33.044V47.3601C97.6 48.0291 100.343 48.3635 102.818 48.3635Z" fill="url(#paint3_linear_208_260)"/>
<path d="M138.985 48.2966C142.865 48.2966 147.214 47.6946 150.96 46.089V33.9805C147.749 35.7199 144.203 36.8572 140.055 36.8572C136.577 36.8572 133.299 36.1213 131.76 32.9102H153.903C156.713 18.7948 149.689 10.0312 136.844 10.0312C125.137 10.0312 118.046 17.1892 118.046 28.9632C118.046 40.7372 125.137 48.2966 138.985 48.2966ZM131.493 24.6149C132.362 22.0059 134.168 20.4003 136.911 20.4003C139.253 20.4003 141.46 21.6045 141.862 24.6149H131.493Z" fill="white"/>
<path d="M138.985 48.2966C142.865 48.2966 147.214 47.6946 150.96 46.089V33.9805C147.749 35.7199 144.203 36.8572 140.055 36.8572C136.577 36.8572 133.299 36.1213 131.76 32.9102H153.903C156.713 18.7948 149.689 10.0312 136.844 10.0312C125.137 10.0312 118.046 17.1892 118.046 28.9632C118.046 40.7372 125.137 48.2966 138.985 48.2966ZM131.493 24.6149C132.362 22.0059 134.168 20.4003 136.911 20.4003C139.253 20.4003 141.46 21.6045 141.862 24.6149H131.493Z" fill="url(#paint4_linear_208_260)"/>
<path d="M156.484 47.6946H170.331V27.4915C170.331 24.3473 171.937 23.0762 174.145 23.0762C175.282 23.0762 176.62 23.4107 177.891 23.9459L178.025 10.6333C177.088 10.4326 176.151 10.2988 175.081 10.2988C172.405 10.2988 169.93 11.1015 168.057 13.443H167.923V10.6333H156.484V47.6946Z" fill="white"/>
<path d="M156.484 47.6946H170.331V27.4915C170.331 24.3473 171.937 23.0762 174.145 23.0762C175.282 23.0762 176.62 23.4107 177.891 23.9459L178.025 10.6333C177.088 10.4326 176.151 10.2988 175.081 10.2988C172.405 10.2988 169.93 11.1015 168.057 13.443H167.923V10.6333H156.484V47.6946Z" fill="url(#paint5_linear_208_260)"/>
<path fill-rule="evenodd" clip-rule="evenodd" d="M180.127 23.7698C179.873 23.4673 179.766 23.0679 179.834 22.6787L181.874 11.005C181.986 10.3647 182.542 9.89743 183.192 9.89743H188.644C189.123 9.89743 189.012 9.89742 189.848 9.89742C190.517 9.89742 190.448 9.89743 190.932 9.89743H194.662C195.401 9.89743 196 10.4964 196 11.2354V22.909C196 23.648 195.401 24.247 194.662 24.247H190.932C190.902 24.247 190.872 24.246 190.842 24.2439C190.812 24.246 190.782 24.247 190.751 24.247H187.072C186.585 24.247 186.503 24.247 185.834 24.247C185.165 24.247 185.251 24.247 184.764 24.247H181.152C180.756 24.247 180.381 24.0723 180.127 23.7698ZM186.921 21.7383L187.072 22.909H190.751L188.644 11.2354H183.192L181.152 22.909H184.764L184.915 21.7383H186.921ZM194.662 22.909V11.2354H190.932V22.909H194.662ZM186.537 18.7279H185.299L185.901 14.0953H185.951L186.537 18.7279Z" fill="url(#paint6_linear_208_260)"/>
<path d="M173.546 57.2129H103.746C96.6453 57.2129 90.8887 62.9695 90.8887 70.0706C90.8887 77.1718 96.6453 82.9284 103.746 82.9284H173.546C180.647 82.9284 186.403 77.1718 186.403 70.0706C186.403 62.9695 180.647 57.2129 173.546 57.2129Z" fill="#34005E"/>
<path d="M104.369 74.4182C103.745 74.4182 103.157 74.2468 102.728 73.8794H102.704V74.357H100.414V65.4668H102.949V67.8914H102.973C103.402 67.622 103.88 67.4995 104.382 67.4995C105.998 67.4995 107.272 68.8098 107.272 70.965C107.272 73.0712 106.108 74.4182 104.369 74.4182ZM102.79 70.9405C102.79 71.6263 103.231 71.9936 103.72 71.9936C104.21 71.9936 104.651 71.6263 104.651 70.9405C104.651 70.2425 104.21 69.8874 103.72 69.8874C103.231 69.8874 102.79 70.2425 102.79 70.9405ZM111.286 74.4672C108.751 74.4672 107.453 73.0835 107.453 70.9283C107.453 68.7731 108.751 67.4628 110.894 67.4628C113.245 67.4628 114.531 69.067 114.017 71.6508H109.964C110.245 72.2385 110.845 72.3732 111.482 72.3732C112.241 72.3732 112.89 72.1651 113.478 71.8467V74.0631C112.792 74.357 111.996 74.4672 111.286 74.4672ZM109.915 70.1323H111.813C111.739 69.5813 111.335 69.3608 110.907 69.3608C110.405 69.3608 110.074 69.6547 109.915 70.1323ZM116.879 74.455C115.458 74.455 114.723 73.7815 114.723 72.2263V69.7282H114.221V68.1853C114.932 67.9404 115.311 67.4628 115.409 66.5689L115.446 66.2505H117.258V67.573H118.189V69.7282H117.258V71.4916C117.258 71.8344 117.43 71.9814 117.675 71.9814C117.797 71.9814 117.956 71.9446 118.128 71.8589V74.2713C117.773 74.3815 117.356 74.455 116.879 74.455ZM121.052 74.455C119.631 74.455 118.897 73.7815 118.897 72.2263V69.7282H118.395V68.1853C119.105 67.9404 119.485 67.4628 119.582 66.5689L119.619 66.2505H121.432V67.573H122.362V69.7282H121.432V71.4916C121.432 71.8344 121.603 71.9814 121.848 71.9814C121.97 71.9814 122.13 71.9446 122.301 71.8589V74.2713C121.946 74.3815 121.53 74.455 121.052 74.455ZM126.306 74.4672C123.771 74.4672 122.473 73.0835 122.473 70.9283C122.473 68.7731 123.771 67.4628 125.914 67.4628C128.265 67.4628 129.551 69.067 129.037 71.6508H124.983C125.265 72.2385 125.865 72.3732 126.502 72.3732C127.261 72.3732 127.91 72.1651 128.498 71.8467V74.0631C127.812 74.357 127.016 74.4672 126.306 74.4672ZM124.934 70.1323H126.832C126.759 69.5813 126.355 69.3608 125.926 69.3608C125.424 69.3608 125.094 69.6547 124.934 70.1323ZM129.509 74.357V67.573H131.603V68.0873H131.628C131.971 67.6587 132.424 67.5118 132.914 67.5118C133.109 67.5118 133.281 67.5363 133.452 67.573L133.428 70.0099C133.195 69.9119 132.95 69.8507 132.742 69.8507C132.338 69.8507 132.044 70.0833 132.044 70.6589V74.357H129.509ZM135.548 74.357V67.573H137.642V68.1118H137.667C138.095 67.6587 138.658 67.4506 139.295 67.4506C139.969 67.4506 140.532 67.6832 140.887 68.1118H140.912C141.316 67.671 141.891 67.4506 142.565 67.4506C143.875 67.4506 144.683 68.2588 144.683 69.5935V74.357H142.161V70.3527C142.161 70.0099 142.038 69.8262 141.781 69.8262C141.524 69.8262 141.389 70.0099 141.389 70.3527V74.357H138.854V70.3527C138.854 70.0099 138.732 69.8262 138.475 69.8262C138.218 69.8262 138.083 70.0099 138.083 70.3527V74.357H135.548ZM147.157 74.4305C145.823 74.4305 144.99 73.5733 144.99 72.1528C144.99 70.7201 145.847 69.9241 147.17 69.9241C147.659 69.9241 148.088 70.0343 148.443 70.218H148.468V70.2058C148.468 69.6792 148.027 69.3608 147.268 69.3608C146.668 69.3608 146.068 69.5445 145.59 69.7894V67.8791C146.349 67.6097 147.255 67.4506 148.064 67.4506C149.962 67.4506 150.99 68.3322 150.99 70.2058V74.357H148.627V73.9774H148.602C148.247 74.2713 147.733 74.4305 147.157 74.4305ZM147.353 72.1161C147.353 72.4957 147.611 72.7406 147.966 72.7406C148.321 72.7406 148.578 72.4957 148.578 72.1161C148.578 71.7365 148.321 71.4916 147.966 71.4916C147.611 71.4916 147.353 71.7365 147.353 72.1161ZM153.854 74.455C152.433 74.455 151.699 73.7815 151.699 72.2263V69.7282H151.197V68.1853C151.907 67.9404 152.286 67.4628 152.384 66.5689L152.421 66.2505H154.233V67.573H155.164V69.7282H154.233V71.4916C154.233 71.8344 154.405 71.9814 154.65 71.9814C154.772 71.9814 154.931 71.9446 155.103 71.8589V74.2713C154.748 74.3815 154.331 74.455 153.854 74.455ZM158.716 74.4182C156.732 74.4182 155.275 73.1447 155.275 70.965C155.275 68.7853 156.732 67.5118 158.716 67.5118C158.985 67.5118 159.23 67.5363 159.5 67.573V70.0588C159.316 69.9854 159.132 69.9486 158.961 69.9486C158.447 69.9486 157.932 70.267 157.932 70.965C157.932 71.663 158.447 71.9814 158.961 71.9814C159.132 71.9814 159.316 71.9446 159.5 71.8712V74.357C159.23 74.3937 158.985 74.4182 158.716 74.4182ZM159.931 74.357V65.4668H162.466V67.9649H162.491C162.821 67.6465 163.287 67.4628 163.85 67.4628C165.025 67.4628 165.772 68.2588 165.772 69.5935V74.357H163.238V70.3527C163.238 70.0099 163.115 69.8262 162.858 69.8262C162.601 69.8262 162.466 70.0099 162.466 70.3527V74.357H159.931ZM169.943 74.4672C167.408 74.4672 166.11 73.0835 166.11 70.9283C166.11 68.7731 167.408 67.4628 169.551 67.4628C171.902 67.4628 173.188 69.067 172.673 71.6508H168.62C168.902 72.2385 169.502 72.3732 170.138 72.3732C170.898 72.3732 171.547 72.1651 172.134 71.8467V74.0631C171.449 74.357 170.653 74.4672 169.943 74.4672ZM168.571 70.1323H170.469C170.396 69.5813 169.992 69.3608 169.563 69.3608C169.061 69.3608 168.73 69.6547 168.571 70.1323ZM174.443 74.4795C173.99 74.4795 173.488 74.4182 173.035 74.2958V71.6752C173.464 72.0426 173.807 72.2263 174.1 72.2263C174.284 72.2263 174.382 72.1528 174.382 72.0304C174.382 71.9201 174.296 71.7977 174.076 71.614L173.782 71.3569C173.243 70.8915 173.011 70.3405 173.011 69.6302C173.011 68.2465 173.905 67.4506 175.46 67.4506C175.839 67.4506 176.256 67.4995 176.709 67.6098V69.765C176.341 69.569 176.048 69.4711 175.827 69.4711C175.656 69.4711 175.57 69.5323 175.57 69.6547C175.57 69.7527 175.631 69.8384 175.778 69.9486L176.194 70.2793C176.807 70.7691 177.101 71.3446 177.101 72.1528C177.101 73.6223 176.109 74.4795 174.443 74.4795Z" fill="#EBEBEB"/>
<path d="M72.4486 57.2129H13.228C6.07337 57.2129 0.273438 63.0269 0.273438 70.1988C0.273438 77.3707 6.07337 83.1847 13.228 83.1847H72.4486C79.6032 83.1847 85.4031 77.3707 85.4031 70.1988C85.4031 63.0269 79.6032 57.2129 72.4486 57.2129Z" fill="#EBEBEB"/>
<path d="M10.373 74.2218V65.1523H12.8976V74.2218H10.373ZM17.0683 74.3342C14.5437 74.3342 13.251 72.9226 13.251 70.7239C13.251 68.5253 14.5437 67.1886 16.678 67.1886C19.0196 67.1886 20.3001 68.8251 19.7879 71.461H15.7511C16.0316 72.0606 16.6292 72.198 17.2634 72.198C18.0195 72.198 18.6659 71.9857 19.2513 71.6609V73.922C18.5683 74.2218 17.7756 74.3342 17.0683 74.3342ZM15.7023 69.9119H17.5927C17.5195 69.3498 17.117 69.1249 16.6902 69.1249C16.1902 69.1249 15.8609 69.4247 15.7023 69.9119ZM21.551 74.3467C21.0998 74.3467 20.5998 74.2843 20.1485 74.1593V71.486C20.5754 71.8607 20.9169 72.0481 21.2096 72.0481C21.3925 72.0481 21.4901 71.9732 21.4901 71.8482C21.4901 71.7358 21.4047 71.6109 21.1852 71.4235L20.8925 71.1612C20.3559 70.6864 20.1241 70.1243 20.1241 69.3997C20.1241 67.9881 21.0144 67.1761 22.5633 67.1761C22.9414 67.1761 23.356 67.226 23.8073 67.3385V69.5371C23.4414 69.3373 23.1487 69.2373 22.9292 69.2373C22.7584 69.2373 22.6731 69.2998 22.6731 69.4247C22.6731 69.5246 22.734 69.6121 22.8804 69.7245L23.295 70.0618C23.9048 70.5615 24.1975 71.1487 24.1975 71.9732C24.1975 73.4723 23.2097 74.3467 21.551 74.3467ZM25.8028 74.3467C25.3516 74.3467 24.8516 74.2843 24.4003 74.1593V71.486C24.8272 71.8607 25.1687 72.0481 25.4614 72.0481C25.6443 72.0481 25.7419 71.9732 25.7419 71.8482C25.7419 71.7358 25.6565 71.6109 25.437 71.4235L25.1443 71.1612C24.6077 70.6864 24.3759 70.1243 24.3759 69.3997C24.3759 67.9881 25.2662 67.1761 26.8151 67.1761C27.1932 67.1761 27.6078 67.226 28.0591 67.3385V69.5371C27.6932 69.3373 27.4005 69.2373 27.181 69.2373C27.0102 69.2373 26.9248 69.2998 26.9248 69.4247C26.9248 69.5246 26.9858 69.6121 27.1322 69.7245L27.5468 70.0618C28.1566 70.5615 28.4493 71.1487 28.4493 71.9732C28.4493 73.4723 27.4615 74.3467 25.8028 74.3467ZM33.2321 75.9707C32.5735 75.9707 31.8295 75.8708 31.1344 75.6584V73.3723C31.61 73.6471 32.2076 73.8845 32.9881 73.8845C34.0004 73.8845 34.476 73.4847 34.476 72.985V72.9726H34.4516C34.0492 73.1849 33.5857 73.2849 33.0857 73.2849C31.5247 73.2849 30.3417 72.3105 30.3417 70.3616C30.3417 68.3628 31.5247 67.2385 33.0857 67.2385C33.7565 67.2385 34.3175 67.4509 34.6833 67.8007H34.7077V67.301H36.9883V72.7727C36.9883 75.0588 35.1956 75.9707 33.2321 75.9707ZM32.9394 70.3616C32.9394 70.9738 33.354 71.2861 33.7931 71.2861C34.2321 71.2861 34.6468 70.9738 34.6468 70.3616C34.6468 69.737 34.2321 69.4122 33.7931 69.4122C33.354 69.4122 32.9394 69.737 32.9394 70.3616ZM37.5157 74.2218V65.1523H40.0402V67.7007H40.0646C40.3939 67.3759 40.8573 67.1886 41.4183 67.1886C42.5891 67.1886 43.333 68.0006 43.333 69.3622V74.2218H40.8085V70.1368C40.8085 69.787 40.6866 69.5996 40.4305 69.5996C40.1744 69.5996 40.0402 69.787 40.0402 70.1368V74.2218H37.5157ZM47.23 74.3467C45.0592 74.3467 43.6689 72.9476 43.6689 70.7614C43.6689 68.5877 45.0714 67.1761 47.23 67.1761C49.4009 67.1761 50.7912 68.5752 50.7912 70.7614C50.7912 72.9476 49.4009 74.3467 47.23 74.3467ZM46.2787 70.7614C46.2787 71.361 46.6812 71.7858 47.23 71.7858C47.791 71.7858 48.1813 71.361 48.1813 70.7614C48.1813 70.1493 47.791 69.737 47.23 69.737C46.669 69.737 46.2787 70.1493 46.2787 70.7614ZM52.4215 74.3467C51.9702 74.3467 51.4702 74.2843 51.019 74.1593V71.486C51.4458 71.8607 51.7873 72.0481 52.08 72.0481C52.2629 72.0481 52.3605 71.9732 52.3605 71.8482C52.3605 71.7358 52.2751 71.6109 52.0556 71.4235L51.7629 71.1612C51.2263 70.6864 50.9946 70.1243 50.9946 69.3997C50.9946 67.9881 51.8849 67.1761 53.4337 67.1761C53.8118 67.1761 54.2265 67.226 54.6777 67.3385V69.5371C54.3118 69.3373 54.0191 69.2373 53.7996 69.2373C53.6289 69.2373 53.5435 69.2998 53.5435 69.4247C53.5435 69.5246 53.6045 69.6121 53.7508 69.7245L54.1655 70.0618C54.7753 70.5615 55.068 71.1487 55.068 71.9732C55.068 73.4723 54.0801 74.3467 52.4215 74.3467ZM57.7006 74.3217C56.2859 74.3217 55.5541 73.6347 55.5541 72.0481V69.4997H55.0541V67.9256C55.7615 67.6758 56.1395 67.1886 56.2371 66.2766L56.2737 65.9518H58.0787V67.301H59.0055V69.4997H58.0787V71.2986C58.0787 71.6484 58.2494 71.7983 58.4933 71.7983C58.6153 71.7983 58.7738 71.7608 58.9446 71.6733V74.1344C58.5909 74.2468 58.1762 74.3217 57.7006 74.3217ZM59.4302 74.2218V67.301H61.9548V74.2218H59.4302ZM59.296 65.702C59.296 64.9399 59.8205 64.4277 60.6986 64.4277C61.5766 64.4277 62.1012 64.9399 62.1012 65.702C62.1012 66.464 61.5766 66.9637 60.6986 66.9637C59.8205 66.9637 59.296 66.464 59.296 65.702ZM62.5024 74.2218V67.301H64.5879V67.8382H64.6123C65.0147 67.4134 65.5757 67.1761 66.2465 67.1761C67.4905 67.1761 68.3198 68.0006 68.3198 69.3622V74.2218H65.7953V70.1368C65.7953 69.787 65.6733 69.5996 65.4172 69.5996C65.1611 69.5996 65.0269 69.787 65.0269 70.1368V74.2218H62.5024ZM71.5462 75.9707C70.8876 75.9707 70.1437 75.8708 69.4485 75.6584V73.3723C69.9241 73.6471 70.5217 73.8845 71.3022 73.8845C72.3145 73.8845 72.7901 73.4847 72.7901 72.985V72.9726H72.7657C72.3633 73.1849 71.8998 73.2849 71.3998 73.2849C69.8388 73.2849 68.6558 72.3105 68.6558 70.3616C68.6558 68.3628 69.8388 67.2385 71.3998 67.2385C72.0706 67.2385 72.6316 67.4509 72.9975 67.8007H73.0219V67.301H75.3025V72.7727C75.3025 75.0588 73.5097 75.9707 71.5462 75.9707ZM71.2535 70.3616C71.2535 70.9738 71.6681 71.2861 72.1072 71.2861C72.5462 71.2861 72.9609 70.9738 72.9609 70.3616C72.9609 69.737 72.5462 69.4122 72.1072 69.4122C71.6681 69.4122 71.2535 69.737 71.2535 70.3616Z" fill="#34005E"/>
</g>
<defs>
<linearGradient id="paint0_linear_208_260" x1="196.497" y1="47.2263" x2="130.676" y2="-111.542" gradientUnits="userSpaceOnUse">
<stop stop-color="#C3DAEE"/>
<stop offset="0.286458" stop-color="#EBEBEB"/>
<stop offset="0.591583" stop-color="#EAF3FA"/>
<stop offset="0.895462" stop-color="#DF86E1"/>
<stop offset="0.995779" stop-color="#E186A7"/>
</linearGradient>
<linearGradient id="paint1_linear_208_260" x1="196.497" y1="47.2263" x2="130.676" y2="-111.542" gradientUnits="userSpaceOnUse">
<stop stop-color="#C3DAEE"/>
<stop offset="0.286458" stop-color="#EBEBEB"/>
<stop offset="0.591583" stop-color="#EAF3FA"/>
<stop offset="0.895462" stop-color="#DF86E1"/>
<stop offset="0.995779" stop-color="#E186A7"/>
</linearGradient>
<linearGradient id="paint2_linear_208_260" x1="196.497" y1="47.2263" x2="130.676" y2="-111.542" gradientUnits="userSpaceOnUse">
<stop stop-color="#C3DAEE"/>
<stop offset="0.286458" stop-color="#EBEBEB"/>
<stop offset="0.591583" stop-color="#EAF3FA"/>
<stop offset="0.895462" stop-color="#DF86E1"/>
<stop offset="0.995779" stop-color="#E186A7"/>
</linearGradient>
<linearGradient id="paint3_linear_208_260" x1="196.497" y1="47.2263" x2="130.676" y2="-111.542" gradientUnits="userSpaceOnUse">
<stop stop-color="#C3DAEE"/>
<stop offset="0.286458" stop-color="#EBEBEB"/>
<stop offset="0.591583" stop-color="#EAF3FA"/>
<stop offset="0.895462" stop-color="#DF86E1"/>
<stop offset="0.995779" stop-color="#E186A7"/>
</linearGradient>
<linearGradient id="paint4_linear_208_260" x1="196.497" y1="47.2263" x2="130.676" y2="-111.542" gradientUnits="userSpaceOnUse">
<stop stop-color="#C3DAEE"/>
<stop offset="0.286458" stop-color="#EBEBEB"/>
<stop offset="0.591583" stop-color="#EAF3FA"/>
<stop offset="0.895462" stop-color="#DF86E1"/>
<stop offset="0.995779" stop-color="#E186A7"/>
</linearGradient>
<linearGradient id="paint5_linear_208_260" x1="196.497" y1="47.2263" x2="130.676" y2="-111.542" gradientUnits="userSpaceOnUse">
<stop stop-color="#C3DAEE"/>
<stop offset="0.286458" stop-color="#EBEBEB"/>
<stop offset="0.591583" stop-color="#EAF3FA"/>
<stop offset="0.895462" stop-color="#DF86E1"/>
<stop offset="0.995779" stop-color="#E186A7"/>
</linearGradient>
<linearGradient id="paint6_linear_208_260" x1="194.662" y1="21.158" x2="178.145" y2="5.84282" gradientUnits="userSpaceOnUse">
<stop stop-color="#C3DAEE"/>
<stop offset="0.286458" stop-color="#EBEBEB"/>
<stop offset="0.591583" stop-color="#EAF3FA"/>
<stop offset="0.895462" stop-color="#DF86E1"/>
<stop offset="0.995779" stop-color="#E186A7"/>
</linearGradient>
<clipPath id="clip0_208_260">
<rect width="196" height="83" fill="white"/>
</clipPath>
</defs>
</svg>
