<svg width="128" height="128" viewBox="0 0 128 128" fill="none" xmlns="http://www.w3.org/2000/svg">
<path d="M44.5356 93C53.7906 93 61.1638 81.2384 61.1638 63.9838C61.1638 46.7292 53.7906 35 44.5356 35C35.8668 35 28.833 45.3721 28 60.9465C29.45 57.9738 32.2265 56.1967 35.8668 56.1967C41.2347 56.1967 44.7824 60.1387 44.7824 65.9549C44.7824 71.868 41.2347 75.7777 35.8668 75.7777C32.5967 75.7777 30.0053 74.356 28.4628 71.9003C30.3446 84.7281 36.7923 93 44.5356 93ZM83.0056 93C92.2606 93 99.6338 81.2384 99.6338 63.9838C99.6338 46.7292 92.2606 35 83.0056 35C74.3367 35 67.3029 45.3721 66.47 60.9465C67.9199 57.9738 70.6964 56.1967 74.3059 56.1967C79.7046 56.1967 83.2524 60.1387 83.2524 65.9549C83.2524 71.868 79.7046 75.7777 74.3059 75.7777C71.0666 75.7777 68.4752 74.356 66.9327 71.9003C68.8146 84.7281 75.2622 93 83.0056 93ZM33.3371 64.7916C34.4477 65.0178 35.4657 63.9515 35.7742 62.4975C36.0519 61.0435 35.3732 59.654 34.2009 59.4279C33.1211 59.2017 31.9797 60.268 31.7329 61.722C31.4861 63.2084 32.2265 64.5978 33.3371 64.7916ZM71.807 64.7916C72.8868 65.0178 73.9665 63.9515 74.2442 62.4975C74.491 61.0435 73.8123 59.6217 72.6708 59.4279C71.5911 59.2017 70.4496 60.268 70.2028 61.722C69.956 63.2084 70.6656 64.5655 71.807 64.7916Z" fill="url(#paint0_linear_212_227)"/>
<defs>
<linearGradient id="paint0_linear_212_227" x1="63.817" y1="35" x2="63.817" y2="93" gradientUnits="userSpaceOnUse">
<stop stop-color="#B8DBFC"/>
<stop offset="1" stop-color="#F8FBFE"/>
</linearGradient>
</defs>
</svg>
