<svg width="128" height="128" viewBox="0 0 128 128" fill="none" xmlns="http://www.w3.org/2000/svg">
<path d="M64.1439 57.7379C62.563 57.7379 61.047 58.3658 59.9291 59.4837C58.8112 60.6015 58.1832 62.1177 58.1832 63.6986C58.1876 65.2766 58.8176 66.7884 59.935 67.9026C61.0524 69.0168 62.5659 69.6426 64.1439 69.6426C65.7204 69.6426 67.2323 69.0163 68.347 67.9016C69.4617 66.7869 70.0879 65.275 70.0879 63.6986C70.0901 62.9166 69.938 62.1418 69.6403 61.4187C69.3425 60.6956 68.9051 60.0384 68.3529 59.4847C67.8008 58.931 67.1447 58.4917 66.4225 58.1919C65.7002 57.8922 64.9259 57.7379 64.1439 57.7379V57.7379ZM86.6306 69.09C87.0608 67.325 87.2801 65.5153 87.2836 63.6986C87.281 61.8819 87.0618 60.0719 86.6306 58.3071L90.5487 54.9584C90.8927 54.6712 91.1236 54.2712 91.2003 53.8296C91.2769 53.3881 91.1943 52.9337 90.9673 52.5473L87.1497 45.8498C86.9278 45.4618 86.5758 45.165 86.1559 45.0117C85.736 44.8585 85.2754 44.8588 84.8558 45.0127L80.0504 46.687C77.3632 44.2752 74.145 42.5313 70.6572 41.597L69.7865 36.5739C69.708 36.1334 69.4773 35.7344 69.1345 35.4467C68.7917 35.159 68.3587 35.0009 67.9112 35H60.2594C59.8139 35.0015 59.3833 35.1602 59.0433 35.4481C58.7033 35.736 58.4758 36.1347 58.4009 36.5739L57.5135 41.597C54.0153 42.6355 50.8134 44.489 48.1705 47.0052L43.3819 45.3308C42.9623 45.1769 42.5016 45.1766 42.0818 45.3299C41.6619 45.4831 41.3099 45.78 41.088 46.168L37.2537 52.8654C37.0318 53.2545 36.9538 53.7092 37.0334 54.15C37.113 54.5908 37.3451 54.9896 37.689 55.2765L41.6071 58.6252C41.1703 60.3894 40.9454 62.1994 40.9373 64.0167C40.9465 65.8341 41.1713 67.6438 41.6071 69.4081L37.689 72.7569C37.3436 73.039 37.11 73.435 37.0303 73.8739C36.9505 74.3127 37.0296 74.7655 37.2537 75.1512L41.088 81.8486C41.3099 82.2366 41.6619 82.5336 42.0818 82.6868C42.5016 82.8401 42.9623 82.8397 43.3819 82.6858L48.1705 81.0115C50.8176 83.522 54.0181 85.3747 57.5135 86.4197L58.4009 91.4428C58.4762 91.8804 58.7043 92.277 59.0446 92.5621C59.3849 92.8473 59.8154 93.0024 60.2594 93H67.9112C68.3572 93.003 68.79 92.8485 69.1331 92.5636C69.4762 92.2787 69.7076 91.8817 69.7865 91.4428L70.6572 86.4197C74.1541 85.3782 77.3554 83.5251 80.0002 81.0115L84.8056 82.6858C85.2252 82.8397 85.6858 82.8401 86.1056 82.6868C86.5255 82.5336 86.8776 82.2366 87.0995 81.8486L90.917 75.1512C91.1429 74.7674 91.2248 74.3157 91.1481 73.877C91.0714 73.4383 90.8411 73.0413 90.4984 72.7569L86.6306 69.09ZM64.1439 76.474C60.7541 76.474 57.503 75.1285 55.1045 72.7332C52.706 70.3378 51.3562 67.0884 51.3518 63.6986C51.3518 60.3059 52.6996 57.0522 55.0985 54.6532C57.4975 52.2542 60.7512 50.9064 64.1439 50.9064C67.5337 50.9109 70.7832 52.2605 73.1786 54.659C75.5739 57.0576 76.9193 60.3088 76.9193 63.6986C76.9149 67.0855 75.5675 70.3323 73.1726 72.7272C70.7778 75.1221 67.5308 76.4696 64.1439 76.474Z" fill="url(#paint0_linear_212_226)"/>
<defs>
<linearGradient id="paint0_linear_212_226" x1="64.1141" y1="35" x2="64.1141" y2="93" gradientUnits="userSpaceOnUse">
<stop stop-color="#A7CFFF"/>
<stop offset="1" stop-color="#6359DE"/>
</linearGradient>
</defs>
</svg>
