<svg width="32" height="32" viewBox="0 0 32 32" fill="none" xmlns="http://www.w3.org/2000/svg">
<path fill-rule="evenodd" clip-rule="evenodd" d="M19.7547 4V4.01942C19.7547 4.36944 19.8551 9.4312 24.9975 9.74705C24.9975 14.456 25 9.74705 25 13.6575C24.6134 13.6813 21.6144 13.4576 19.7479 11.7384L19.7419 19.3521C19.7884 22.7995 17.9301 26.1804 14.451 26.8619C13.4763 27.0533 12.5975 27.0741 11.1252 26.7416C2.63794 24.1196 5.45874 11.119 13.9802 12.5104C13.9802 16.7074 13.9826 12.5104 13.9826 16.7074C10.4609 16.1725 9.28442 19.1959 10.2199 21.3629C11.0712 23.3344 14.5768 23.7621 15.7993 20.98C15.9377 20.4355 16.007 19.8147 16.0072 19.118V4H19.7547Z" fill="#EBEBEB"/>
</svg>
