<svg width="32" height="32" viewBox="0 0 32 32" fill="none" xmlns="http://www.w3.org/2000/svg">
<path d="M12.0972 27C21.8401 27 27.2382 18.9028 27.2382 11.8589C27.2382 11.6615 27.2382 11.3981 27.2382 11.2006C28.2915 10.4765 29.1473 9.48903 29.8714 8.43574C28.9498 8.83073 27.8965 9.15987 26.8432 9.29153C27.9624 8.63323 28.7523 7.57994 29.1473 6.32915C28.094 6.92163 26.9749 7.38244 25.79 7.64577C24.8025 6.59248 23.4201 6 21.9059 6C18.9436 6 16.5737 8.36989 16.5737 11.3323C16.5737 11.7273 16.6395 12.1223 16.7053 12.5173C12.2947 12.3198 8.34483 10.2132 5.77744 6.98746C5.31662 7.77743 5.05331 8.69904 5.05331 9.6865C5.05331 11.5298 5.97493 13.1755 7.4232 14.0972C6.5674 14.0972 5.7116 13.8338 4.98746 13.4389V13.5047C4.98746 16.0721 6.83072 18.2445 9.26645 18.7053C8.80564 18.837 8.34484 18.9028 7.88403 18.9028C7.55487 18.9028 7.22572 18.837 6.89657 18.837C7.55487 20.9436 9.52979 22.4577 11.8339 22.5235C9.99061 23.9718 7.75236 24.8276 5.2508 24.8276C4.78998 24.8276 4.39498 24.8276 4 24.7617C6.30407 26.1442 9.13478 27 12.0972 27Z" fill="#EBEBEB"/>
</svg>
