<svg width="390" height="827" viewBox="0 0 390 827" fill="none" xmlns="http://www.w3.org/2000/svg">
<g filter="url(#filter0_d_1674_3289)">
<path fill-rule="evenodd" clip-rule="evenodd" d="M519.115 472.906C514.596 478.314 509.594 483.758 504.532 488.962C502.654 490.892 502.259 493.826 503.556 496.186C506.775 502.046 509.872 508.102 512.582 514.079C528.678 549.571 541.157 597.393 533.561 656.187C521.049 753.032 465.524 818.645 397.171 856.167C330.731 892.639 252.381 902.866 186.373 894.338C122.789 886.124 73.8838 872.034 31.9415 852.054C-9.85928 832.143 -42.1585 807.573 -72.6851 782.21C-96.895 762.096 -100.205 726.19 -80.0748 702.01C-59.9424 677.831 -23.9975 674.537 0.214867 694.652C28.1484 717.861 51.904 735.392 80.9946 749.25C109.941 763.038 146.76 774.379 200.966 781.382C246.384 787.249 299.804 779.637 342.231 756.346C373.325 739.276 398.483 714.06 411.798 677.735C415.832 666.729 418.779 654.705 420.475 641.578C423.683 616.744 421.096 596.319 415.738 579.098C413.422 571.654 403.998 569.909 397.854 574.709C379.26 589.237 354.251 600.776 324.829 608.58C281.166 620.162 227.786 623.518 171.235 616.212C35.8542 598.722 -66.4289 526.746 -57.2178 455.448C-48.0071 384.152 69.2097 340.534 204.591 358.024C280.713 367.858 346.372 394.919 387.629 429.399C391.552 432.677 397.31 432.737 401.16 429.374V429.374C416.117 416.315 434.131 400.584 447.31 377.957C450.244 372.92 452.938 367.54 455.305 361.772C459.486 351.586 462.648 340.188 464.31 327.321C464.506 325.807 464.678 324.3 464.827 322.8C467.908 291.751 461.014 263.941 446.833 239.399C446.327 238.525 445.813 237.654 445.289 236.788C442.245 231.754 435.652 230.49 430.469 233.273C382.821 258.859 304.065 269.706 217.499 258.523C106.608 244.197 17.2983 198.163 -6.95761 147.692C-12.3099 136.557 -14.4949 125.205 -13.0456 113.928C-12.9986 113.564 -12.9464 113.199 -12.892 112.837C-11.2506 101.849 -6.23162 91.6803 1.66307 82.4838C17.2258 64.3645 43.9695 50.0229 78.1144 40.6466C139.186 17.286 206.949 11.0684 298.948 22.9539C361.379 31.0193 434.565 62.4992 490.437 114.231C547.533 167.096 589.935 244.876 577.397 341.931C569.922 399.788 544.156 442.929 519.115 472.906ZM48.1387 -49.9932C126.822 -79.1595 210.277 -84.6287 311.163 -71.5952C392.893 -61.0364 484.651 -21.1655 555.437 44.3753C629.398 112.855 689.589 219.525 672.193 354.178C663.885 418.486 639.226 469.436 612.655 507.647C627.565 551.48 636.471 605.634 628.357 668.434C611.477 799.096 534.925 889.401 443.298 939.699C356.712 987.23 257.439 999.646 174.159 988.887C102.704 979.656 43.651 963.258 -9.20299 938.08C-61.6529 913.096 -101.111 882.632 -133.828 855.45C-198.615 801.623 -207.398 705.666 -153.624 641.073L-153.619 641.068C-137.226 621.38 -116.9 606.862 -94.7253 597.714C-131.345 559.766 -160.31 507.414 -152.014 443.201C-140.638 355.143 -67.1567 306.466 -7.08771 284.113V284.113C-5.73014 283.608 -5.52616 281.759 -6.74158 280.971C-41.5668 258.392 -74.2288 228.206 -93.138 188.864C-105.209 163.751 -111.987 133.932 -107.85 101.744L-107.842 101.681C-107.692 100.519 -107.545 99.5035 -107.429 98.725C-107.426 98.7046 -107.423 98.6841 -107.42 98.664L-107.416 98.6399C-102.72 67.3283 -88.633 41.0392 -70.9554 20.4466L-70.9471 20.4368L-70.9389 20.4271C-39.0557 -16.6934 6.24245 -37.9082 48.1387 -49.9932Z" fill="#EBEBEB" style="fill:#EBEBEB;fill:color(display-p3 0.9216 0.9216 0.9216);fill-opacity:1;"/>
<path fill-rule="evenodd" clip-rule="evenodd" d="M519.115 472.906C514.596 478.314 509.594 483.758 504.532 488.962C502.654 490.892 502.259 493.826 503.556 496.186C506.775 502.046 509.872 508.102 512.582 514.079C528.678 549.571 541.157 597.393 533.561 656.187C521.049 753.032 465.524 818.645 397.171 856.167C330.731 892.639 252.381 902.866 186.373 894.338C122.789 886.124 73.8838 872.034 31.9415 852.054C-9.85928 832.143 -42.1585 807.573 -72.6851 782.21C-96.895 762.096 -100.205 726.19 -80.0748 702.01C-59.9424 677.831 -23.9975 674.537 0.214867 694.652C28.1484 717.861 51.904 735.392 80.9946 749.25C109.941 763.038 146.76 774.379 200.966 781.382C246.384 787.249 299.804 779.637 342.231 756.346C373.325 739.276 398.483 714.06 411.798 677.735C415.832 666.729 418.779 654.705 420.475 641.578C423.683 616.744 421.096 596.319 415.738 579.098C413.422 571.654 403.998 569.909 397.854 574.709C379.26 589.237 354.251 600.776 324.829 608.58C281.166 620.162 227.786 623.518 171.235 616.212C35.8542 598.722 -66.4289 526.746 -57.2178 455.448C-48.0071 384.152 69.2097 340.534 204.591 358.024C280.713 367.858 346.372 394.919 387.629 429.399C391.552 432.677 397.31 432.737 401.16 429.374V429.374C416.117 416.315 434.131 400.584 447.31 377.957C450.244 372.92 452.938 367.54 455.305 361.772C459.486 351.586 462.648 340.188 464.31 327.321C464.506 325.807 464.678 324.3 464.827 322.8C467.908 291.751 461.014 263.941 446.833 239.399C446.327 238.525 445.813 237.654 445.289 236.788C442.245 231.754 435.652 230.49 430.469 233.273C382.821 258.859 304.065 269.706 217.499 258.523C106.608 244.197 17.2983 198.163 -6.95761 147.692C-12.3099 136.557 -14.4949 125.205 -13.0456 113.928C-12.9986 113.564 -12.9464 113.199 -12.892 112.837C-11.2506 101.849 -6.23162 91.6803 1.66307 82.4838C17.2258 64.3645 43.9695 50.0229 78.1144 40.6466C139.186 17.286 206.949 11.0684 298.948 22.9539C361.379 31.0193 434.565 62.4992 490.437 114.231C547.533 167.096 589.935 244.876 577.397 341.931C569.922 399.788 544.156 442.929 519.115 472.906ZM48.1387 -49.9932C126.822 -79.1595 210.277 -84.6287 311.163 -71.5952C392.893 -61.0364 484.651 -21.1655 555.437 44.3753C629.398 112.855 689.589 219.525 672.193 354.178C663.885 418.486 639.226 469.436 612.655 507.647C627.565 551.48 636.471 605.634 628.357 668.434C611.477 799.096 534.925 889.401 443.298 939.699C356.712 987.23 257.439 999.646 174.159 988.887C102.704 979.656 43.651 963.258 -9.20299 938.08C-61.6529 913.096 -101.111 882.632 -133.828 855.45C-198.615 801.623 -207.398 705.666 -153.624 641.073L-153.619 641.068C-137.226 621.38 -116.9 606.862 -94.7253 597.714C-131.345 559.766 -160.31 507.414 -152.014 443.201C-140.638 355.143 -67.1567 306.466 -7.08771 284.113V284.113C-5.73014 283.608 -5.52616 281.759 -6.74158 280.971C-41.5668 258.392 -74.2288 228.206 -93.138 188.864C-105.209 163.751 -111.987 133.932 -107.85 101.744L-107.842 101.681C-107.692 100.519 -107.545 99.5035 -107.429 98.725C-107.426 98.7046 -107.423 98.6841 -107.42 98.664L-107.416 98.6399C-102.72 67.3283 -88.633 41.0392 -70.9554 20.4466L-70.9471 20.4368L-70.9389 20.4271C-39.0557 -16.6934 6.24245 -37.9082 48.1387 -49.9932Z" fill="url(#paint0_linear_1674_3289)" style=""/>
</g>
<defs>
<filter id="filter0_d_1674_3289" x="-288.831" y="-174.269" width="1064.05" height="1270.77" filterUnits="userSpaceOnUse" color-interpolation-filters="sRGB">
<feFlood flood-opacity="0" result="BackgroundImageFix"/>
<feColorMatrix in="SourceAlpha" type="matrix" values="0 0 0 0 0 0 0 0 0 0 0 0 0 0 0 0 0 0 127 0" result="hardAlpha"/>
<feOffset dy="4"/>
<feGaussianBlur stdDeviation="50"/>
<feComposite in2="hardAlpha" operator="out"/>
<feColorMatrix type="matrix" values="0 0 0 0 0 0 0 0 0 0 0 0 0 0 0 0 0 0 0.75 0"/>
<feBlend mode="normal" in2="BackgroundImageFix" result="effect1_dropShadow_1674_3289"/>
<feBlend mode="normal" in="SourceGraphic" in2="effect1_dropShadow_1674_3289" result="shape"/>
</filter>
<linearGradient id="paint0_linear_1674_3289" x1="598.561" y1="1083.97" x2="-490.734" y2="485.493" gradientUnits="userSpaceOnUse">
<stop offset="0.333333" stop-color="#4E6AFF" style="stop-color:#4E6AFF;stop-color:color(display-p3 0.3059 0.4157 1.0000);stop-opacity:1;"/>
<stop offset="1" stop-color="#14F1FF" style="stop-color:#14F1FF;stop-color:color(display-p3 0.0792 0.9448 1.0000);stop-opacity:1;"/>
</linearGradient>
</defs>
</svg>
