<svg width="200" height="200" viewBox="0 0 200 200" fill="none" xmlns="http://www.w3.org/2000/svg">
<path d="M84.5007 169.989C83.9539 169.988 83.4126 169.88 82.9075 169.67C82.4025 169.461 81.9438 169.154 81.5574 168.767C81.1711 168.38 80.8647 167.921 80.6559 167.415C80.447 166.91 80.3398 166.368 80.3402 165.822C80.3401 165.476 80.3837 165.131 80.47 164.796L87.706 136.575C88.4476 133.85 88.6019 130.999 88.1587 128.21L77.5343 150.734C77.0913 151.667 76.3167 152.403 75.3613 152.797C74.4059 153.191 73.3381 153.215 72.3658 152.865C71.3935 152.515 70.5863 151.815 70.1014 150.903C69.6164 149.99 69.4885 148.93 69.7424 147.928L76.9751 119.706C77.2682 118.568 77.474 117.41 77.5909 116.241C76.6449 115.976 75.6786 115.789 74.7018 115.682L47.5883 112.643C46.5704 112.525 45.6316 112.036 44.9521 111.269C44.2725 110.502 43.8999 109.511 43.9056 108.487C43.9114 107.462 44.2952 106.475 44.9833 105.716C45.6715 104.957 46.6157 104.478 47.6349 104.372L71.8593 101.862C69.5677 100.136 66.8411 99.08 63.9842 98.8134L36.8708 95.7745C35.8527 95.6584 34.9132 95.1707 34.2325 94.4048C33.5517 93.6389 33.1776 92.6487 33.1817 91.624C33.1858 90.5993 33.5679 89.6122 34.2548 88.8518C34.9417 88.0914 35.8851 87.6113 36.9041 87.5033L66.2309 84.4645C72.1223 83.8554 78.666 81.0828 84.6572 76.656L84.8402 76.5228C90.9013 72.1093 95.7309 66.5175 98.4436 60.7693L111.757 32.5475C112.213 31.6361 112.988 30.9238 113.935 30.5458C114.881 30.1677 115.934 30.1503 116.892 30.4968C117.851 30.8432 118.649 31.5295 119.135 32.4253C119.621 33.3212 119.761 34.3642 119.529 35.3567L112.297 63.5752C111.555 66.2966 111.403 69.1448 111.851 71.9296L122.465 49.416C122.905 48.4766 123.68 47.7353 124.638 47.3375C125.596 46.9398 126.668 46.9142 127.644 47.2659C128.619 47.6176 129.429 48.3211 129.913 49.2386C130.397 50.156 130.521 51.2212 130.26 52.2252L123.024 80.4437C122.728 81.5829 122.522 82.7437 122.408 83.9153C123.356 84.1866 124.324 84.3771 125.304 84.4845L152.418 87.5233C153.439 87.6363 154.382 88.1231 155.066 88.89C155.749 89.6569 156.125 90.6497 156.12 91.677C156.116 92.7044 155.731 93.6938 155.041 94.4546C154.351 95.2154 153.403 95.6939 152.381 95.7978L128.147 98.3075C130.441 100.036 133.171 101.09 136.032 101.353L163.132 104.375C164.153 104.488 165.096 104.974 165.78 105.741C166.464 106.507 166.84 107.5 166.836 108.527C166.832 109.555 166.448 110.544 165.758 111.305C165.068 112.066 164.121 112.545 163.099 112.65L133.772 115.685C127.88 116.294 121.337 119.07 115.345 123.497L115.149 123.637C109.101 128.04 104.272 133.622 101.559 139.384L88.2452 167.602C87.9098 168.313 87.3802 168.914 86.7176 169.336C86.055 169.759 85.2865 169.985 84.5007 169.989Z" fill="url(#paint0_linear_209_345)"/>
<path d="M115.501 34.3211L108.265 62.5429C106.644 68.867 107.456 74.6618 110.175 79.255C107.283 84.9134 102.47 90.372 96.5284 94.7056L96.3487 94.8354C90.5306 99.1325 84.1833 101.932 78.3319 102.8C75.3363 98.337 70.5833 95.368 64.4423 94.679L37.3188 91.6401L66.6424 88.6046C73.5223 87.8923 80.7084 84.7336 87.1156 80.0006C87.1689 79.9607 87.2221 79.9207 87.2787 79.8841C93.7126 75.1977 99.068 69.1632 102.19 62.5429L115.504 34.3211M126.231 51.1896L118.999 79.4115C117.301 86.0284 118.26 92.0595 121.289 96.7493L121.365 96.8691C124.324 101.602 129.214 104.758 135.574 105.473L162.688 108.509L133.361 111.541C126.481 112.253 119.295 115.412 112.888 120.142L112.725 120.261C106.287 124.945 100.935 130.982 97.8132 137.603L84.4995 165.821L91.7322 137.603C93.4297 130.982 92.4711 124.954 89.4422 120.261L89.369 120.142C86.4067 115.412 81.5172 112.253 75.1565 111.541L48.0431 108.502L77.3699 105.466C84.2465 104.751 91.4359 101.596 97.8398 96.8625L98.0029 96.7426C104.44 92.0595 109.796 86.0217 112.918 79.4048C119.555 65.3255 126.231 51.183 126.231 51.183M120.786 87.7559C122.113 88.1666 123.476 88.4508 124.857 88.6046L151.97 91.6401L122.98 94.6357C121.769 92.5225 121.025 90.1742 120.799 87.7492M81.7602 116.237C83.8346 117.426 85.6042 119.08 86.9292 121.07L73.7752 148.959L81.0079 120.741C81.3864 119.264 81.6381 117.757 81.7602 116.237ZM115.501 26C115.117 25.9997 114.735 26.0264 114.356 26.0799C112.952 26.2722 111.62 26.8198 110.487 27.6708C109.354 28.5218 108.458 29.648 107.882 30.9427L94.6645 58.9915C92.2447 64.1206 87.8845 69.1499 82.3826 73.154L82.1729 73.3071C76.7675 77.3012 70.9494 79.7909 65.787 80.3268L36.4601 83.3656C34.4191 83.578 32.5285 84.537 31.1515 86.0585C29.7745 87.5799 29.0083 89.5566 29.0001 91.6086C28.9918 93.6606 29.7421 95.6434 31.1068 97.1759C32.4714 98.7084 34.3543 99.6826 36.3935 99.9113L44.7879 100.85C43.0942 101.569 41.6865 102.828 40.7849 104.432C39.8833 106.036 39.5387 107.894 39.805 109.714C40.0712 111.535 40.9334 113.216 42.2565 114.494C43.5796 115.772 45.2892 116.576 47.1178 116.78L72.6968 119.646L65.7071 146.892C65.2858 148.532 65.3748 150.262 65.9624 151.85C66.5499 153.438 67.608 154.809 68.9953 155.78C70.3825 156.751 72.033 157.275 73.7263 157.284C75.4196 157.292 77.0751 156.783 78.4717 155.826L76.438 163.761C75.9281 165.765 76.1826 167.887 77.1519 169.713C78.1213 171.54 79.736 172.94 81.6814 173.641C83.6268 174.342 85.7635 174.294 87.6751 173.505C89.5867 172.717 91.1363 171.245 92.0217 169.376L105.335 141.157C107.755 136.028 112.116 130.999 117.617 126.995L117.827 126.845C123.233 122.851 129.051 120.358 134.213 119.822L163.54 116.787C165.581 116.574 167.472 115.615 168.848 114.094C170.225 112.572 170.992 110.596 171 108.544C171.008 106.492 170.258 104.509 168.893 102.976C167.529 101.444 165.646 100.47 163.606 100.241L155.212 99.2989C156.904 98.5792 158.31 97.3193 159.211 95.7161C160.111 94.1129 160.455 92.2565 160.189 90.4371C159.923 88.6177 159.061 86.9377 157.739 85.6596C156.418 84.3814 154.71 83.5771 152.882 83.3723L127.303 80.5065L134.233 53.4696C134.394 52.896 134.495 52.3069 134.533 51.7122C134.56 51.2473 134.551 50.781 134.506 50.3176C134.311 48.466 133.5 46.7334 132.204 45.3968C130.908 44.0602 129.201 43.197 127.356 42.9451C126.979 42.8947 126.599 42.8692 126.218 42.8685C124.556 42.8717 122.933 43.3725 121.558 44.3064L121.528 44.3264L123.525 36.6011C123.687 36.0274 123.787 35.4384 123.825 34.8437C123.855 34.3788 123.845 33.9122 123.795 33.449C123.612 31.694 122.874 30.043 121.688 28.736C121.275 28.2817 120.814 27.8732 120.313 27.5178C119.226 26.7516 117.97 26.2574 116.652 26.0766C116.272 26.0255 115.888 25.9999 115.504 26H115.501Z" fill="url(#paint1_linear_209_345)"/>
<path d="M120.796 87.7883C121.026 90.2157 121.769 92.5665 122.976 94.6848L151.97 91.6892L124.86 88.637C123.482 88.4813 122.121 88.1972 120.796 87.7883ZM78.3353 102.846C84.1834 101.974 90.534 99.1848 96.3521 94.8579L96.5352 94.7281C102.486 90.4011 107.299 84.9291 110.182 79.2575C107.466 74.6676 106.654 68.8628 108.275 62.5254L115.504 34.2803L102.19 62.5321C99.0715 69.159 93.7127 75.2034 87.2755 79.8899L87.1124 80.0097C80.7051 84.7494 73.5224 87.9081 66.6425 88.6237L37.3223 91.6759L64.4357 94.7181C70.58 95.4071 75.3397 98.3794 78.3286 102.849L78.3353 102.846ZM81.7736 116.3C81.6515 117.821 81.3998 119.328 81.0213 120.806L73.7853 149.065L86.9393 121.153C85.6203 119.154 83.851 117.493 81.7736 116.303V116.3ZM112.728 120.337L112.894 120.221C119.298 115.481 126.484 112.322 133.364 111.607L162.688 108.564L135.574 105.522C129.22 104.81 124.328 101.648 121.365 96.9115L121.289 96.795C118.263 92.1053 117.295 86.0608 118.999 79.4339L126.232 51.1887L112.918 79.4306C109.799 86.0608 104.44 92.1019 98.003 96.7917L97.8466 96.9115C91.4427 101.651 84.2566 104.81 77.3734 105.526L48.0465 108.564L75.16 111.603C81.5173 112.319 86.4068 115.478 89.3691 120.214L89.4456 120.334C92.4712 125.024 93.4398 131.068 91.7356 137.695L84.4996 165.947L97.8133 137.695C100.935 131.068 106.288 125.024 112.725 120.337H112.728Z" fill="url(#paint2_linear_209_345)"/>
<path d="M120.796 87.7883C121.026 90.2157 121.769 92.5665 122.976 94.6848L151.97 91.6892L124.86 88.637C123.482 88.4813 122.121 88.1972 120.796 87.7883ZM78.3353 102.846C84.1834 101.974 90.534 99.1848 96.3521 94.8579L96.5352 94.7281C102.486 90.4011 107.299 84.9291 110.182 79.2575C107.466 74.6676 106.654 68.8628 108.275 62.5254L115.504 34.2803L102.19 62.5321C99.0715 69.159 93.7127 75.2034 87.2755 79.8899L87.1124 80.0097C80.7051 84.7494 73.5224 87.9081 66.6425 88.6237L37.3223 91.6759L64.4357 94.7181C70.58 95.4071 75.3397 98.3794 78.3286 102.849L78.3353 102.846ZM81.7736 116.3C81.6515 117.821 81.3998 119.328 81.0213 120.806L73.7853 149.065L86.9393 121.153C85.6203 119.154 83.851 117.493 81.7736 116.303V116.3ZM112.728 120.337L112.894 120.221C119.298 115.481 126.484 112.322 133.364 111.607L162.688 108.564L135.574 105.522C129.22 104.81 124.328 101.648 121.365 96.9115L121.289 96.795C118.263 92.1053 117.295 86.0608 118.999 79.4339L126.232 51.1887L112.918 79.4306C109.799 86.0608 104.44 92.1019 98.003 96.7917L97.8466 96.9115C91.4427 101.651 84.2566 104.81 77.3734 105.526L48.0465 108.564L75.16 111.603C81.5173 112.319 86.4068 115.478 89.3691 120.214L89.4456 120.334C92.4712 125.024 93.4398 131.068 91.7356 137.695L84.4996 165.947L97.8133 137.695C100.935 131.068 106.288 125.024 112.725 120.337H112.728Z" fill="url(#paint3_radial_209_345)"/>
<path d="M120.796 87.7883C121.026 90.2157 121.769 92.5665 122.976 94.6848L151.97 91.6892L124.86 88.637C123.482 88.4813 122.121 88.1972 120.796 87.7883ZM78.3353 102.846C84.1834 101.974 90.534 99.1848 96.3521 94.8579L96.5352 94.7281C102.486 90.4011 107.299 84.9291 110.182 79.2575C107.466 74.6676 106.654 68.8628 108.275 62.5254L115.504 34.2803L102.19 62.5321C99.0715 69.159 93.7127 75.2034 87.2755 79.8899L87.1124 80.0097C80.7051 84.7494 73.5224 87.9081 66.6425 88.6237L37.3223 91.6759L64.4357 94.7181C70.58 95.4071 75.3397 98.3794 78.3286 102.849L78.3353 102.846ZM81.7736 116.3C81.6515 117.821 81.3998 119.328 81.0213 120.806L73.7853 149.065L86.9393 121.153C85.6203 119.154 83.851 117.493 81.7736 116.303V116.3ZM112.728 120.337L112.894 120.221C119.298 115.481 126.484 112.322 133.364 111.607L162.688 108.564L135.574 105.522C129.22 104.81 124.328 101.648 121.365 96.9115L121.289 96.795C118.263 92.1053 117.295 86.0608 118.999 79.4339L126.232 51.1887L112.918 79.4306C109.799 86.0608 104.44 92.1019 98.003 96.7917L97.8466 96.9115C91.4427 101.651 84.2566 104.81 77.3734 105.526L48.0465 108.564L75.16 111.603C81.5173 112.319 86.4068 115.478 89.3691 120.214L89.4456 120.334C92.4712 125.024 93.4398 131.068 91.7356 137.695L84.4996 165.947L97.8133 137.695C100.935 131.068 106.288 125.024 112.725 120.337H112.728Z" fill="url(#paint4_linear_209_345)" fill-opacity="0.5"/>
<defs>
<linearGradient id="paint0_linear_209_345" x1="53.1335" y1="64.2009" x2="146.826" y2="136.022" gradientUnits="userSpaceOnUse">
<stop offset="0.03" stop-color="#C3DAEE"/>
<stop offset="0.29" stop-color="#EBEBEB"/>
<stop offset="0.71" stop-color="#EAF3FA"/>
<stop offset="0.76" stop-color="#E9EDF9"/>
<stop offset="0.82" stop-color="#E8DDF5"/>
<stop offset="0.89" stop-color="#E5C3EF"/>
<stop offset="0.96" stop-color="#E19EE7"/>
<stop offset="1" stop-color="#E186A7"/>
</linearGradient>
<linearGradient id="paint1_linear_209_345" x1="49.8504" y1="61.621" x2="150.156" y2="138.518" gradientUnits="userSpaceOnUse">
<stop offset="0.03" stop-color="#C3DAEE"/>
<stop offset="0.29" stop-color="#EBEBEB"/>
<stop offset="0.71" stop-color="#EAF3FA"/>
<stop offset="0.76" stop-color="#E9EDF9"/>
<stop offset="0.82" stop-color="#E8DDF5"/>
<stop offset="0.89" stop-color="#E5C3EF"/>
<stop offset="0.96" stop-color="#E19EE7"/>
<stop offset="1" stop-color="#E186A7"/>
</linearGradient>
<linearGradient id="paint2_linear_209_345" x1="8.43807" y1="24.1119" x2="148.093" y2="140.028" gradientUnits="userSpaceOnUse">
<stop stop-color="#D9C3EE"/>
<stop offset="0.29" stop-color="#EBEBEB"/>
<stop offset="0.59" stop-color="#EAF3FA"/>
<stop offset="0.9" stop-color="#DE59A1"/>
<stop offset="1" stop-color="#FFA7A7"/>
</linearGradient>
<radialGradient id="paint3_radial_209_345" cx="0" cy="0" r="1" gradientUnits="userSpaceOnUse" gradientTransform="translate(-1225.78 -918.023) rotate(37.6605) scale(1730.01 1753.55)">
<stop stop-color="#EBC3EE"/>
<stop offset="0.84" stop-color="#292929"/>
<stop offset="0.93" stop-color="#26133D"/>
<stop offset="0.98" stop-color="#101010"/>
<stop offset="1" stop-color="#2B2D29"/>
</radialGradient>
<linearGradient id="paint4_linear_209_345" x1="120.131" y1="-156.353" x2="99.644" y2="104.817" gradientUnits="userSpaceOnUse">
<stop stop-color="white"/>
<stop offset="0.65" stop-color="#D5D5D5"/>
<stop offset="1" stop-color="#040404"/>
</linearGradient>
</defs>
</svg>
